<svg width="257" height="157" viewBox="0 0 257 157" fill="none" xmlns="http://www.w3.org/2000/svg">
<g clip-path="url(#clip0_42_642)">
<path d="M127.179 26.6902C131.485 26.6902 134.975 23.4333 134.975 19.4158C134.975 15.3983 131.485 12.1414 127.179 12.1414C122.873 12.1414 119.382 15.3983 119.382 19.4158C119.382 23.4333 122.873 26.6902 127.179 26.6902Z" fill="#FFB86C"/>
<path d="M144.628 15.9713C144.408 15.2986 143.982 14.7006 143.402 14.2509C142.823 13.8012 142.115 13.5194 141.366 13.4403C141.349 13.4389 141.331 13.4389 141.314 13.4403C141.293 13.4342 141.271 13.4296 141.249 13.4267C138.639 13.1106 135.736 13.8789 133.783 15.5517C133.058 16.1629 132.478 16.9091 132.081 17.7421C131.719 17.2806 131.241 16.9084 130.69 16.6578C130.139 16.4071 129.531 16.2856 128.918 16.3036C128.128 16.3524 127.373 16.6273 126.757 17.091C126.14 17.5546 125.692 18.1844 125.473 18.8945C125.449 18.9813 125.456 19.073 125.492 19.1559C125.528 19.2389 125.592 19.3087 125.674 19.355C125.909 19.5424 126.188 19.675 126.489 19.7418C127.134 19.8699 127.786 19.987 128.437 20.0933C129.71 20.3003 130.99 20.4683 132.276 20.5973C133.126 20.6818 133.978 20.749 134.831 20.7989C136.595 20.9024 138.367 20.9269 140.134 20.8752C141.01 20.8479 141.851 20.8207 142.651 20.4611C143.234 20.1936 143.732 19.7888 144.096 19.2869C144.439 18.804 144.664 18.2569 144.756 17.6841C144.848 17.1112 144.804 16.5266 144.628 15.9713Z" fill="#E6E6E6"/>
<path d="M128.588 26.5692C128.574 26.2644 128.519 25.9625 128.425 25.6702C128.204 24.9975 127.777 24.3997 127.198 23.9501C126.618 23.5005 125.91 23.2187 125.161 23.1392C125.144 23.1378 125.127 23.1378 125.111 23.1392C125.089 23.1333 125.066 23.1288 125.044 23.1256C123.599 22.9604 122.133 23.101 120.754 23.537C118.634 24.199 116.774 25.5339 115.878 27.441C115.516 26.9792 115.038 26.6069 114.486 26.3562C113.935 26.1056 113.326 25.9842 112.713 26.0025C111.923 26.0513 111.168 26.3262 110.551 26.7899C109.935 27.2535 109.486 27.8834 109.267 28.5935C109.245 28.6802 109.252 28.7715 109.288 28.8541C109.324 28.9368 109.388 29.0067 109.469 29.0539C109.704 29.2408 109.983 29.3733 110.283 29.4407C110.932 29.5688 111.58 29.6859 112.234 29.7922C113.507 29.9992 114.786 30.1673 116.071 30.2962C118.681 30.5576 121.307 30.6505 123.931 30.5741C124.804 30.5468 125.648 30.5196 126.448 30.16C127.03 29.8924 127.528 29.4876 127.891 28.9858C128.402 28.2741 128.648 27.4245 128.588 26.5692Z" fill="#E6E6E6"/>
<path d="M230.129 114.837C230.241 119.797 229.507 124.742 227.955 129.487C227.901 129.659 227.836 129.831 227.771 130.004H195.781C196.239 127.903 196.965 125.86 197.944 123.921C200.606 118.649 204.952 114.137 209.244 109.656C215.155 103.482 220.925 97.3584 221.838 89.3289C224.181 92.6616 226.051 96.2637 227.401 100.045C225.748 100.616 224.231 101.484 222.935 102.6C222.577 102.914 222.197 103.37 222.381 103.806C222.555 104.171 223.033 104.293 223.457 104.374C224.478 104.557 225.5 104.739 226.521 104.911C227.325 105.064 228.14 105.205 228.955 105.347C229.671 108.468 230.064 111.646 230.129 114.837Z" fill="url(#paint0_linear_42_642)"/>
<g filter="url(#filter0_d_42_642)">
<path d="M257 111.552C251.871 114.462 248.611 118.963 245.949 124.002C243.633 124.495 241.494 125.543 239.745 127.043C239.375 127.358 238.995 127.814 239.191 128.25C239.354 128.615 239.843 128.737 240.266 128.818C241.277 129 242.309 129.183 243.32 129.355C243.222 129.568 243.124 129.791 243.026 130.004H209.125C210.664 128.067 212.368 126.25 214.221 124.57C214.623 124.195 215.036 123.84 215.46 123.475C219.781 119.831 224.743 116.909 230.129 114.837C238.612 111.528 247.889 110.394 257 111.552Z" fill="url(#paint1_linear_42_642)"/>
</g>
<path d="M214.775 130.004H184.59C184.425 127.748 184.439 125.485 184.633 123.231C185.839 109.311 193.956 96.0506 206.202 88.021C204.637 93.222 205.441 98.3925 207.071 103.583C206.843 103.654 206.615 103.715 206.408 103.796C204.755 104.368 203.238 105.236 201.943 106.351C201.584 106.665 201.204 107.122 201.388 107.558C201.551 107.923 202.04 108.044 202.464 108.125C203.486 108.308 204.507 108.49 205.517 108.663C206.332 108.815 207.147 108.957 207.962 109.109C208.343 109.17 208.723 109.241 209.103 109.311C209.157 109.433 209.19 109.545 209.244 109.656C211.157 114.573 213.243 119.531 214.221 124.57C214.463 125.834 214.63 127.11 214.721 128.392C214.753 128.929 214.775 129.466 214.775 130.004Z" fill="#F2F2F2"/>
<path d="M50.2612 114.837C50.3733 119.797 49.6397 124.742 48.0881 129.487C48.0337 129.659 47.9685 129.831 47.9033 130.004H15.9141C16.3713 127.903 17.0973 125.86 18.0764 123.921C20.7385 118.649 25.0849 114.137 29.3769 109.656C35.288 103.482 41.0578 97.3584 41.9706 89.3289C44.3136 92.6616 46.1836 96.2637 47.5339 100.045C45.8808 100.616 44.3636 101.484 43.068 102.6C42.7094 102.914 42.3291 103.37 42.5139 103.806C42.6877 104.171 43.1658 104.293 43.5896 104.374C44.6109 104.557 45.6323 104.739 46.6537 104.911C47.4578 105.064 48.2728 105.205 49.0877 105.347C49.804 108.468 50.197 111.646 50.2612 114.837Z" fill="url(#paint2_linear_42_642)"/>
<path d="M77.1327 111.552C72.004 114.462 68.7442 118.963 66.0821 124.002C63.7655 124.495 61.6268 125.543 59.8777 127.043C59.5082 127.358 59.1279 127.814 59.3235 128.25C59.4865 128.615 59.9755 128.737 60.3992 128.818C61.4097 129 62.442 129.183 63.4525 129.355C63.3548 129.568 63.257 129.791 63.1592 130.004H29.2576C30.7965 128.067 32.5008 126.25 34.3537 124.57C34.7557 124.195 35.1686 123.84 35.5924 123.475C39.914 119.831 44.8763 116.909 50.2614 114.837C58.7449 111.528 68.0219 110.394 77.1327 111.552Z" fill="#F2F2F2"/>
<path d="M34.9078 130.004H4.72226C4.55742 127.748 4.57196 125.485 4.76577 123.231C5.97187 109.311 14.0887 96.0506 26.3346 88.021C24.7699 93.222 25.5739 98.3925 27.2038 103.583C26.9757 103.654 26.7475 103.715 26.541 103.796C24.8879 104.368 23.3707 105.236 22.0752 106.351C21.7166 106.665 21.3363 107.122 21.521 107.558C21.6839 107.923 22.1729 108.044 22.5967 108.125C23.6181 108.308 24.6395 108.49 25.65 108.663C26.4649 108.815 27.2799 108.957 28.0948 109.109C28.4751 109.17 28.8555 109.241 29.2357 109.311C29.29 109.433 29.3227 109.545 29.377 109.656C31.2894 114.573 33.3756 119.531 34.3536 124.57C34.5957 125.834 34.7625 127.11 34.8535 128.392C34.886 128.929 34.9078 129.466 34.9078 130.004Z" fill="url(#paint3_linear_42_642)"/>
<path d="M147.284 118.179L174.255 120.413L174.544 120.438V13.0581C174.448 12.9954 174.352 12.9328 174.255 12.8701C168.634 9.2016 162.554 6.18786 156.149 3.8959L154.771 21.6318L154.645 23.2555L153.281 40.8443L152.861 46.255L147.334 117.553L147.284 118.179Z" fill="#E6E6E6"/>
<path d="M80.584 11.0584C80.3913 11.1728 80.1986 11.2872 80.0059 11.4071V120.438L80.584 120.389L107.263 118.179L107.214 117.553L101.686 46.255L101.266 40.8443L99.9022 23.2555L99.7766 21.6318L98.3313 3.03227C92.0983 5.04816 86.1415 7.74208 80.584 11.0584Z" fill="#E6E6E6"/>
<path d="M80.0059 11.4071C79.6175 11.6414 79.2292 11.8811 78.8467 12.1236V121.925C78.8467 124.669 80.5899 126.968 82.92 127.554C83.3007 127.65 83.6935 127.699 84.0879 127.698H170.751C171.145 127.699 171.537 127.65 171.916 127.554C172.782 127.33 173.567 126.891 174.188 126.284C175.372 125.104 176.018 123.542 175.993 121.925V14.0334C175.514 13.7038 175.032 13.3768 174.544 13.0581C174.448 12.9954 174.352 12.9328 174.255 12.8701V121.925C174.256 122.279 174.211 122.631 174.121 122.974C173.709 124.595 172.351 125.783 170.751 125.783H84.0879C82.155 125.783 80.584 124.053 80.584 121.925V11.0584C80.3913 11.1728 80.1986 11.2872 80.0059 11.4071Z" fill="#E6E6E6"/>
<path d="M175.124 21.6329H79.7146V23.2564H175.124V21.6329Z" fill="#E6E6E6"/>
<path d="M145.903 0.923577C145.324 0.790081 144.746 0.664757 144.162 0.547607V44.6312H145.903V0.923577Z" fill="#E6E6E6"/>
<path d="M110.677 0C110.096 0.100803 109.515 0.204332 108.937 0.316032V44.6312H110.677V0Z" fill="#E6E6E6"/>
<path d="M61.0088 124.857C61.0084 125.788 61.1997 126.711 61.5723 127.576C61.7155 127.911 61.8863 128.235 62.0833 128.546C62.3378 128.951 62.6331 129.332 62.9651 129.684C63.6987 130.464 64.6022 131.089 65.6153 131.517C66.6285 131.945 67.7279 132.167 68.84 132.166H183.1C185.177 132.166 187.168 131.397 188.637 130.026C190.106 128.656 190.931 126.797 190.931 124.86C190.931 122.922 190.106 121.063 188.637 119.693C187.168 118.323 185.177 117.553 183.1 117.553H68.84C66.7642 117.555 64.7739 118.325 63.3058 119.694C61.8377 121.063 61.0116 122.92 61.0088 124.857Z" fill="#E6E6E6"/>
<path d="M79.7145 46.2556L174.544 46.2556V40.844L79.7145 40.844V46.2556Z" fill="#E6E6E6"/>
<path d="M131.189 42.1969H123.069C123.069 41.4075 123.405 40.6505 124.004 40.0923C124.602 39.5341 125.413 39.2205 126.259 39.2205H127.999C128.418 39.2205 128.833 39.2975 129.22 39.4471C129.607 39.5967 129.959 39.8159 130.255 40.0923C130.551 40.3687 130.786 40.6968 130.946 41.0579C131.107 41.419 131.189 41.8061 131.189 42.1969Z" fill="#E6E6E6"/>
<path d="M0 129.031C2.53661 131.835 5.28024 134.47 8.21082 136.918H243.726C246.657 134.47 249.4 131.835 251.937 129.031H0Z" fill="#3F3D56"/>
<path d="M115.83 102.656V130.597H136.81V102.656C136.81 102.455 136.742 102.259 136.614 102.097C136.486 101.935 136.306 101.816 136.1 101.757C136.003 101.727 135.902 101.712 135.8 101.713H116.844C116.711 101.713 116.579 101.737 116.456 101.784C116.333 101.831 116.222 101.901 116.128 101.988C116.033 102.076 115.959 102.18 115.908 102.294C115.857 102.409 115.83 102.532 115.83 102.656ZM124.018 112.256C124.023 111.706 124.262 111.179 124.681 110.792C125.101 110.404 125.667 110.186 126.257 110.186C126.848 110.186 127.414 110.404 127.834 110.792C128.253 111.179 128.491 111.706 128.497 112.256V115.499C128.494 116.051 128.257 116.58 127.837 116.969C127.417 117.359 126.849 117.577 126.257 117.577C125.665 117.577 125.097 117.359 124.678 116.969C124.258 116.58 124.021 116.051 124.018 115.499V112.256Z" fill="#1E1F26"/>
<path d="M115.766 129.704V132.398C115.767 132.538 115.826 132.671 115.932 132.77C116.037 132.869 116.18 132.925 116.33 132.927H136.311C136.46 132.926 136.604 132.87 136.709 132.771C136.815 132.672 136.874 132.538 136.874 132.398V129.704H115.766Z" fill="#3F3D56"/>
<path d="M82.8264 60.5581V111.575C82.827 112.226 83.104 112.849 83.5967 113.309C84.0894 113.768 84.7575 114.027 85.4543 114.027H166.482C167.179 114.027 167.847 113.768 168.34 113.309C168.833 112.849 169.11 112.226 169.11 111.575V60.5581C169.108 59.9086 168.831 59.2861 168.338 58.827C167.846 58.3679 167.178 58.1097 166.482 58.1089H85.4543C84.7582 58.1097 84.0907 58.3679 83.5981 58.827C83.1056 59.2861 82.8281 59.9086 82.8264 60.5581Z" fill="#1E1F26"/>
<path d="M84.7275 61.1929V110.946C84.7282 111.293 84.8764 111.626 85.1396 111.872C85.4029 112.118 85.7597 112.256 86.132 112.256H165.808C166.18 112.256 166.537 112.118 166.8 111.872C167.064 111.626 167.212 111.293 167.212 110.946V61.1929C167.212 60.8451 167.065 60.5115 166.801 60.2653C166.538 60.0192 166.181 59.8805 165.808 59.8797H86.132C85.7593 59.8805 85.4021 60.0192 85.1388 60.2654C84.8755 60.5115 84.7276 60.8451 84.7275 61.1929Z" fill="#5B607B"/>
<path d="M100.974 133.561C101.055 133.656 101.158 133.733 101.275 133.785C101.393 133.837 101.521 133.864 101.651 133.864H149.053C149.183 133.864 149.311 133.836 149.428 133.784C149.545 133.732 149.648 133.657 149.73 133.563C149.811 133.469 149.87 133.359 149.9 133.241C149.931 133.124 149.933 133.001 149.906 132.883L149.17 129.622C149.14 129.489 149.074 129.365 148.979 129.262C148.884 129.159 148.763 129.079 148.627 129.031C148.528 128.995 148.424 128.976 148.318 128.976H102.384C102.278 128.976 102.173 128.995 102.075 129.031C101.939 129.079 101.818 129.159 101.723 129.262C101.628 129.365 101.562 129.489 101.532 129.622L100.796 132.883C100.77 133.001 100.772 133.124 100.803 133.241C100.834 133.358 100.892 133.468 100.974 133.561Z" fill="#2F2E41"/>
<path d="M146.663 130.381H147.838C147.917 130.381 147.981 130.321 147.981 130.248V129.696C147.981 129.623 147.917 129.563 147.838 129.563H146.663C146.585 129.563 146.521 129.623 146.521 129.696V130.248C146.521 130.321 146.585 130.381 146.663 130.381Z" fill="#3F3D56"/>
<path d="M143.743 130.381H144.918C144.997 130.381 145.061 130.321 145.061 130.248V129.696C145.061 129.623 144.997 129.563 144.918 129.563H143.743C143.665 129.563 143.601 129.623 143.601 129.696V130.248C143.601 130.321 143.665 130.381 143.743 130.381Z" fill="#3F3D56"/>
<path d="M140.823 130.381H141.998C142.077 130.381 142.141 130.321 142.141 130.248V129.696C142.141 129.623 142.077 129.563 141.998 129.563H140.823C140.745 129.563 140.681 129.623 140.681 129.696V130.248C140.681 130.321 140.745 130.381 140.823 130.381Z" fill="#3F3D56"/>
<path d="M137.904 130.381H139.078C139.157 130.381 139.221 130.321 139.221 130.248V129.696C139.221 129.623 139.157 129.563 139.078 129.563H137.904C137.825 129.563 137.761 129.623 137.761 129.696V130.248C137.761 130.321 137.825 130.381 137.904 130.381Z" fill="#3F3D56"/>
<path d="M134.984 130.381H136.158C136.237 130.381 136.301 130.321 136.301 130.248V129.696C136.301 129.623 136.237 129.563 136.158 129.563H134.984C134.905 129.563 134.841 129.623 134.841 129.696V130.248C134.841 130.321 134.905 130.381 134.984 130.381Z" fill="#3F3D56"/>
<path d="M132.064 130.381H133.239C133.317 130.381 133.381 130.321 133.381 130.248V129.696C133.381 129.623 133.317 129.563 133.239 129.563H132.064C131.985 129.563 131.921 129.623 131.921 129.696V130.248C131.921 130.321 131.985 130.381 132.064 130.381Z" fill="#3F3D56"/>
<path d="M129.144 130.381H130.319C130.397 130.381 130.461 130.321 130.461 130.248V129.696C130.461 129.623 130.397 129.563 130.319 129.563H129.144C129.065 129.563 129.001 129.623 129.001 129.696V130.248C129.001 130.321 129.065 130.381 129.144 130.381Z" fill="#3F3D56"/>
<path d="M126.224 130.381H127.399C127.477 130.381 127.541 130.321 127.541 130.248V129.696C127.541 129.623 127.477 129.563 127.399 129.563H126.224C126.145 129.563 126.081 129.623 126.081 129.696V130.248C126.081 130.321 126.145 130.381 126.224 130.381Z" fill="#3F3D56"/>
<path d="M123.304 130.381H124.479C124.558 130.381 124.621 130.321 124.621 130.248V129.696C124.621 129.623 124.558 129.563 124.479 129.563H123.304C123.225 129.563 123.161 129.623 123.161 129.696V130.248C123.161 130.321 123.225 130.381 123.304 130.381Z" fill="#3F3D56"/>
<path d="M120.384 130.381H121.559C121.638 130.381 121.701 130.321 121.701 130.248V129.696C121.701 129.623 121.638 129.563 121.559 129.563H120.384C120.305 129.563 120.241 129.623 120.241 129.696V130.248C120.241 130.321 120.305 130.381 120.384 130.381Z" fill="#3F3D56"/>
<path d="M117.464 130.381H118.639C118.718 130.381 118.781 130.321 118.781 130.248V129.696C118.781 129.623 118.718 129.563 118.639 129.563H117.464C117.385 129.563 117.322 129.623 117.322 129.696V130.248C117.322 130.321 117.385 130.381 117.464 130.381Z" fill="#3F3D56"/>
<path d="M114.544 130.381H115.719C115.798 130.381 115.862 130.321 115.862 130.248V129.696C115.862 129.623 115.798 129.563 115.719 129.563H114.544C114.465 129.563 114.402 129.623 114.402 129.696V130.248C114.402 130.321 114.465 130.381 114.544 130.381Z" fill="#3F3D56"/>
<path d="M111.624 130.381H112.799C112.878 130.381 112.942 130.321 112.942 130.248V129.696C112.942 129.623 112.878 129.563 112.799 129.563H111.624C111.546 129.563 111.482 129.623 111.482 129.696V130.248C111.482 130.321 111.546 130.381 111.624 130.381Z" fill="#3F3D56"/>
<path d="M108.704 130.381H109.879C109.958 130.381 110.022 130.321 110.022 130.248V129.696C110.022 129.623 109.958 129.563 109.879 129.563H108.704C108.626 129.563 108.562 129.623 108.562 129.696V130.248C108.562 130.321 108.626 130.381 108.704 130.381Z" fill="#3F3D56"/>
<path d="M105.784 130.381H106.959C107.038 130.381 107.102 130.321 107.102 130.248V129.696C107.102 129.623 107.038 129.563 106.959 129.563H105.784C105.706 129.563 105.642 129.623 105.642 129.696V130.248C105.642 130.321 105.706 130.381 105.784 130.381Z" fill="#3F3D56"/>
<path d="M102.864 130.381H104.039C104.118 130.381 104.182 130.321 104.182 130.248V129.696C104.182 129.623 104.118 129.563 104.039 129.563H102.864C102.786 129.563 102.722 129.623 102.722 129.696V130.248C102.722 130.321 102.786 130.381 102.864 130.381Z" fill="#3F3D56"/>
<path d="M146.698 131.743H147.873C147.952 131.743 148.015 131.683 148.015 131.61V131.059C148.015 130.985 147.952 130.926 147.873 130.926H146.698C146.619 130.926 146.555 130.985 146.555 131.059V131.61C146.555 131.683 146.619 131.743 146.698 131.743Z" fill="#3F3D56"/>
<path d="M143.778 131.743H144.953C145.032 131.743 145.095 131.683 145.095 131.61V131.059C145.095 130.985 145.032 130.926 144.953 130.926H143.778C143.699 130.926 143.635 130.985 143.635 131.059V131.61C143.635 131.683 143.699 131.743 143.778 131.743Z" fill="#3F3D56"/>
<path d="M140.858 131.743H142.033C142.112 131.743 142.176 131.683 142.176 131.61V131.059C142.176 130.985 142.112 130.926 142.033 130.926H140.858C140.779 130.926 140.716 130.985 140.716 131.059V131.61C140.716 131.683 140.779 131.743 140.858 131.743Z" fill="#3F3D56"/>
<path d="M137.938 131.743H139.113C139.192 131.743 139.256 131.683 139.256 131.61V131.059C139.256 130.985 139.192 130.926 139.113 130.926H137.938C137.859 130.926 137.796 130.985 137.796 131.059V131.61C137.796 131.683 137.859 131.743 137.938 131.743Z" fill="#3F3D56"/>
<path d="M135.018 131.743H136.193C136.272 131.743 136.336 131.683 136.336 131.61V131.059C136.336 130.985 136.272 130.926 136.193 130.926H135.018C134.94 130.926 134.876 130.985 134.876 131.059V131.61C134.876 131.683 134.94 131.743 135.018 131.743Z" fill="#3F3D56"/>
<path d="M132.098 131.743H133.273C133.352 131.743 133.416 131.683 133.416 131.61V131.059C133.416 130.985 133.352 130.926 133.273 130.926H132.098C132.02 130.926 131.956 130.985 131.956 131.059V131.61C131.956 131.683 132.02 131.743 132.098 131.743Z" fill="#3F3D56"/>
<path d="M129.178 131.743H130.353C130.432 131.743 130.496 131.683 130.496 131.61V131.059C130.496 130.985 130.432 130.926 130.353 130.926H129.178C129.1 130.926 129.036 130.985 129.036 131.059V131.61C129.036 131.683 129.1 131.743 129.178 131.743Z" fill="#3F3D56"/>
<path d="M126.259 131.743H127.433C127.512 131.743 127.576 131.683 127.576 131.61V131.059C127.576 130.985 127.512 130.926 127.433 130.926H126.259C126.18 130.926 126.116 130.985 126.116 131.059V131.61C126.116 131.683 126.18 131.743 126.259 131.743Z" fill="#3F3D56"/>
<path d="M123.339 131.743H124.513C124.592 131.743 124.656 131.683 124.656 131.61V131.059C124.656 130.985 124.592 130.926 124.513 130.926H123.339C123.26 130.926 123.196 130.985 123.196 131.059V131.61C123.196 131.683 123.26 131.743 123.339 131.743Z" fill="#3F3D56"/>
<path d="M120.419 131.743H121.594C121.672 131.743 121.736 131.683 121.736 131.61V131.059C121.736 130.985 121.672 130.926 121.594 130.926H120.419C120.34 130.926 120.276 130.985 120.276 131.059V131.61C120.276 131.683 120.34 131.743 120.419 131.743Z" fill="#3F3D56"/>
<path d="M117.499 131.743H118.674C118.752 131.743 118.816 131.683 118.816 131.61V131.059C118.816 130.985 118.752 130.926 118.674 130.926H117.499C117.42 130.926 117.356 130.985 117.356 131.059V131.61C117.356 131.683 117.42 131.743 117.499 131.743Z" fill="#3F3D56"/>
<path d="M114.579 131.743H115.754C115.832 131.743 115.896 131.683 115.896 131.61V131.059C115.896 130.985 115.832 130.926 115.754 130.926H114.579C114.5 130.926 114.436 130.985 114.436 131.059V131.61C114.436 131.683 114.5 131.743 114.579 131.743Z" fill="#3F3D56"/>
<path d="M111.659 131.743H112.834C112.912 131.743 112.976 131.683 112.976 131.61V131.059C112.976 130.985 112.912 130.926 112.834 130.926H111.659C111.58 130.926 111.516 130.985 111.516 131.059V131.61C111.516 131.683 111.58 131.743 111.659 131.743Z" fill="#3F3D56"/>
<path d="M108.739 131.743H109.914C109.993 131.743 110.056 131.683 110.056 131.61V131.059C110.056 130.985 109.993 130.926 109.914 130.926H108.739C108.66 130.926 108.596 130.985 108.596 131.059V131.61C108.596 131.683 108.66 131.743 108.739 131.743Z" fill="#3F3D56"/>
<path d="M105.819 131.743H106.994C107.073 131.743 107.136 131.683 107.136 131.61V131.059C107.136 130.985 107.073 130.926 106.994 130.926H105.819C105.74 130.926 105.677 130.985 105.677 131.059V131.61C105.677 131.683 105.74 131.743 105.819 131.743Z" fill="#3F3D56"/>
<path d="M102.899 131.743H104.074C104.153 131.743 104.217 131.683 104.217 131.61V131.059C104.217 130.985 104.153 130.926 104.074 130.926H102.899C102.82 130.926 102.757 130.985 102.757 131.059V131.61C102.757 131.683 102.82 131.743 102.899 131.743Z" fill="#3F3D56"/>
<path d="M122.463 133.378H133.857C133.936 133.378 134 133.318 134 133.245V132.693C134 132.62 133.936 132.56 133.857 132.56H122.463C122.384 132.56 122.32 132.62 122.32 132.693V133.245C122.32 133.318 122.384 133.378 122.463 133.378Z" fill="#3F3D56"/>
<path d="M90.1357 66.7335H164.688C164.766 66.7319 164.839 66.702 164.894 66.6503C164.948 66.5986 164.978 66.5292 164.978 66.4568C164.978 66.3845 164.948 66.315 164.894 66.2633C164.839 66.2116 164.766 66.1818 164.688 66.1802H90.1357C90.0582 66.1818 89.9845 66.2116 89.9303 66.2633C89.8761 66.315 89.8457 66.3845 89.8457 66.4568C89.8457 66.5292 89.8761 66.5986 89.9303 66.6503C89.9845 66.702 90.0582 66.7319 90.1357 66.7335Z" fill="#3F3D56"/>
<path d="M159.613 64.7678C160.573 64.7678 161.351 64.0258 161.351 63.1106C161.351 62.1953 160.573 61.4533 159.613 61.4533C158.654 61.4533 157.876 62.1953 157.876 63.1106C157.876 64.0258 158.654 64.7678 159.613 64.7678Z" fill="#3F3D56"/>
<path d="M153.611 64.7678C154.571 64.7678 155.349 64.0258 155.349 63.1106C155.349 62.1953 154.571 61.4533 153.611 61.4533C152.651 61.4533 151.874 62.1953 151.874 63.1106C151.874 64.0258 152.651 64.7678 153.611 64.7678Z" fill="#3F3D56"/>
<path d="M147.609 64.7678C148.568 64.7678 149.346 64.0258 149.346 63.1106C149.346 62.1953 148.568 61.4533 147.609 61.4533C146.649 61.4533 145.871 62.1953 145.871 63.1106C145.871 64.0258 146.649 64.7678 147.609 64.7678Z" fill="#3F3D56"/>
<path d="M93.4316 62.1655C93.4314 62.2047 93.4395 62.2435 93.4554 62.2798C93.4713 62.316 93.4947 62.349 93.5242 62.3769C93.5538 62.4047 93.5889 62.4268 93.6277 62.442C93.6664 62.4571 93.7079 62.465 93.7499 62.4652H98.013C98.0973 62.4634 98.1774 62.4308 98.2363 62.3746C98.2952 62.3183 98.3282 62.2428 98.3282 62.1641C98.3282 62.0855 98.2952 62.01 98.2363 61.9537C98.1774 61.8975 98.0973 61.8649 98.013 61.8631H93.7499C93.6648 61.8641 93.5836 61.8964 93.5239 61.9531C93.4643 62.0097 93.4311 62.0861 93.4316 62.1655Z" fill="#3F3D56"/>
<path d="M93.4316 63.2961C93.4314 63.3353 93.4395 63.3742 93.4554 63.4104C93.4713 63.4467 93.4947 63.4797 93.5242 63.5075C93.5538 63.5353 93.5889 63.5575 93.6277 63.5726C93.6664 63.5878 93.7079 63.5957 93.7499 63.5958H98.013C98.0973 63.5941 98.1776 63.5616 98.2366 63.5053C98.2956 63.4491 98.3286 63.3735 98.3286 63.2948C98.3286 63.2161 98.2956 63.1405 98.2366 63.0842C98.1776 63.028 98.0973 62.9955 98.013 62.9937H93.7499C93.6648 62.9947 93.5836 63.027 93.5239 63.0837C93.4643 63.1404 93.4311 63.2167 93.4316 63.2961Z" fill="#3F3D56"/>
<path d="M93.4316 64.4241C93.4311 64.5035 93.4643 64.5798 93.5239 64.6365C93.5836 64.6932 93.6648 64.7255 93.7499 64.7265H98.013C98.0973 64.7246 98.1774 64.6921 98.2363 64.6359C98.2952 64.5796 98.3282 64.5041 98.3282 64.4254C98.3282 64.3468 98.2952 64.2712 98.2363 64.215C98.1774 64.1587 98.0973 64.1262 98.013 64.1244H93.7499C93.7079 64.1245 93.6664 64.1324 93.6277 64.1476C93.5889 64.1627 93.5538 64.1849 93.5242 64.2127C93.4947 64.2405 93.4713 64.2735 93.4554 64.3098C93.4395 64.346 93.4314 64.3849 93.4316 64.4241Z" fill="#3F3D56"/>
<path d="M94.7492 73.1621H93.2174C92.753 73.1621 92.3765 73.5134 92.3765 73.9467C92.3765 74.3801 92.753 74.7314 93.2174 74.7314H94.7492C95.2137 74.7314 95.5902 74.3801 95.5902 73.9467C95.5902 73.5134 95.2137 73.1621 94.7492 73.1621Z" fill="#E6E6E6"/>
<path d="M112.269 73.1621H110.737C110.272 73.1621 109.896 73.5134 109.896 73.9467C109.896 74.3801 110.272 74.7314 110.737 74.7314H112.269C112.733 74.7314 113.11 74.3801 113.11 73.9467C113.11 73.5134 112.733 73.1621 112.269 73.1621Z" fill="#E6E6E6"/>
<path d="M117.233 73.1621H115.701C115.236 73.1621 114.86 73.5134 114.86 73.9467C114.86 74.3801 115.236 74.7314 115.701 74.7314H117.233C117.697 74.7314 118.074 74.3801 118.074 73.9467C118.074 73.5134 117.697 73.1621 117.233 73.1621Z" fill="#E6E6E6"/>
<path d="M107.503 73.0313H97.9828C97.5183 73.0313 97.1418 73.3826 97.1418 73.8159C97.1418 74.2493 97.5183 74.6005 97.9828 74.6005H107.503C107.968 74.6005 108.344 74.2493 108.344 73.8159C108.344 73.3826 107.968 73.0313 107.503 73.0313Z" fill="#E6E6E6"/>
<path d="M130.863 73.0313H121.342C120.878 73.0313 120.501 73.3826 120.501 73.8159C120.501 74.2493 120.878 74.6005 121.342 74.6005H130.863C131.327 74.6005 131.704 74.2493 131.704 73.8159C131.704 73.3826 131.327 73.0313 130.863 73.0313Z" fill="#E6E6E6"/>
<path d="M99.4211 76.7039H97.8893C97.4248 76.7039 97.0483 77.0551 97.0483 77.4885C97.0483 77.9218 97.4248 78.2731 97.8893 78.2731H99.4211C99.8855 78.2731 100.262 77.9218 100.262 77.4885C100.262 77.0551 99.8855 76.7039 99.4211 76.7039Z" fill="#E6E6E6"/>
<path d="M116.941 76.7039H115.409C114.944 76.7039 114.568 77.0551 114.568 77.4885C114.568 77.9218 114.944 78.2731 115.409 78.2731H116.941C117.405 78.2731 117.782 77.9218 117.782 77.4885C117.782 77.0551 117.405 76.7039 116.941 76.7039Z" fill="#E6E6E6"/>
<path d="M121.905 76.7039H120.373C119.908 76.7039 119.532 77.0551 119.532 77.4885C119.532 77.9218 119.908 78.2731 120.373 78.2731H121.905C122.369 78.2731 122.745 77.9218 122.745 77.4885C122.745 77.0551 122.369 76.7039 121.905 76.7039Z" fill="#E6E6E6"/>
<path d="M112.175 76.573H102.655C102.19 76.573 101.814 76.9243 101.814 77.3577C101.814 77.791 102.19 78.1423 102.655 78.1423H112.175C112.64 78.1423 113.016 77.791 113.016 77.3577C113.016 76.9243 112.64 76.573 112.175 76.573Z" fill="#E6E6E6"/>
<path d="M135.535 76.573H126.014C125.55 76.573 125.173 76.9243 125.173 77.3577C125.173 77.791 125.55 78.1423 126.014 78.1423H135.535C135.999 78.1423 136.376 77.791 136.376 77.3577C136.376 76.9243 135.999 76.573 135.535 76.573Z" fill="#E6E6E6"/>
<path d="M104.093 80.2456H102.561C102.097 80.2456 101.72 80.5969 101.72 81.0302C101.72 81.4635 102.097 81.8148 102.561 81.8148H104.093C104.557 81.8148 104.934 81.4635 104.934 81.0302C104.934 80.5969 104.557 80.2456 104.093 80.2456Z" fill="#E6E6E6"/>
<path d="M121.613 80.2456H120.081C119.616 80.2456 119.24 80.5969 119.24 81.0302C119.24 81.4635 119.616 81.8148 120.081 81.8148H121.613C122.077 81.8148 122.453 81.4635 122.453 81.0302C122.453 80.5969 122.077 80.2456 121.613 80.2456Z" fill="#E6E6E6"/>
<path d="M126.576 80.2456H125.045C124.58 80.2456 124.204 80.5969 124.204 81.0302C124.204 81.4635 124.58 81.8148 125.045 81.8148H126.576C127.041 81.8148 127.417 81.4635 127.417 81.0302C127.417 80.5969 127.041 80.2456 126.576 80.2456Z" fill="#E6E6E6"/>
<path d="M116.847 80.1148H107.327C106.862 80.1148 106.486 80.4661 106.486 80.8994C106.486 81.3327 106.862 81.684 107.327 81.684H116.847C117.312 81.684 117.688 81.3327 117.688 80.8994C117.688 80.4661 117.312 80.1148 116.847 80.1148Z" fill="#E6E6E6"/>
<path d="M140.207 80.1148H130.686C130.221 80.1148 129.845 80.4661 129.845 80.8994C129.845 81.3327 130.221 81.684 130.686 81.684H140.207C140.671 81.684 141.047 81.3327 141.047 80.8994C141.047 80.4661 140.671 80.1148 140.207 80.1148Z" fill="#E6E6E6"/>
<path d="M108.765 83.7873H107.233C106.769 83.7873 106.392 84.1386 106.392 84.5719C106.392 85.0053 106.769 85.3565 107.233 85.3565H108.765C109.229 85.3565 109.606 85.0053 109.606 84.5719C109.606 84.1386 109.229 83.7873 108.765 83.7873Z" fill="#E6E6E6"/>
<path d="M126.284 83.7873H124.753C124.288 83.7873 123.912 84.1386 123.912 84.5719C123.912 85.0053 124.288 85.3565 124.753 85.3565H126.284C126.749 85.3565 127.125 85.0053 127.125 84.5719C127.125 84.1386 126.749 83.7873 126.284 83.7873Z" fill="#E6E6E6"/>
<path d="M131.248 83.7873H129.716C129.252 83.7873 128.875 84.1386 128.875 84.5719C128.875 85.0053 129.252 85.3565 129.716 85.3565H131.248C131.713 85.3565 132.089 85.0053 132.089 84.5719C132.089 84.1386 131.713 83.7873 131.248 83.7873Z" fill="#E6E6E6"/>
<path d="M121.519 83.6565H111.998C111.534 83.6565 111.157 84.0078 111.157 84.4411C111.157 84.8744 111.534 85.2257 111.998 85.2257H121.519C121.983 85.2257 122.36 84.8744 122.36 84.4411C122.36 84.0078 121.983 83.6565 121.519 83.6565Z" fill="#E6E6E6"/>
<path d="M112.269 97.8707H110.737C110.272 97.8707 109.896 98.222 109.896 98.6553C109.896 99.0887 110.272 99.44 110.737 99.44H112.269C112.733 99.44 113.11 99.0887 113.11 98.6553C113.11 98.222 112.733 97.8707 112.269 97.8707Z" fill="#E6E6E6"/>
<path d="M117.233 97.8707H115.701C115.236 97.8707 114.86 98.222 114.86 98.6553C114.86 99.0887 115.236 99.44 115.701 99.44H117.233C117.697 99.44 118.074 99.0887 118.074 98.6553C118.074 98.222 117.697 97.8707 117.233 97.8707Z" fill="#E6E6E6"/>
<path d="M130.863 98.0016H121.342C120.878 98.0016 120.501 98.3528 120.501 98.7862C120.501 99.2195 120.878 99.5708 121.342 99.5708H130.863C131.327 99.5708 131.704 99.2195 131.704 98.7862C131.704 98.3528 131.327 98.0016 130.863 98.0016Z" fill="#E6E6E6"/>
<path d="M94.7492 97.8707H93.2174C92.753 97.8707 92.3765 98.222 92.3765 98.6553C92.3765 99.0887 92.753 99.44 93.2174 99.44H94.7492C95.2137 99.44 95.5902 99.0887 95.5902 98.6553C95.5902 98.222 95.2137 97.8707 94.7492 97.8707Z" fill="#E6E6E6"/>
<path d="M107.503 98.0016H97.9828C97.5183 98.0016 97.1418 98.3528 97.1418 98.7862C97.1418 99.2195 97.5183 99.5708 97.9828 99.5708H107.503C107.968 99.5708 108.344 99.2195 108.344 98.7862C108.344 98.3528 107.968 98.0016 107.503 98.0016Z" fill="#E6E6E6"/>
<path d="M99.4211 94.329H97.8893C97.4248 94.329 97.0483 94.6803 97.0483 95.1136C97.0483 95.547 97.4248 95.8982 97.8893 95.8982H99.4211C99.8855 95.8982 100.262 95.547 100.262 95.1136C100.262 94.6803 99.8855 94.329 99.4211 94.329Z" fill="#E6E6E6"/>
<path d="M116.941 94.329H115.409C114.944 94.329 114.568 94.6803 114.568 95.1136C114.568 95.547 114.944 95.8982 115.409 95.8982H116.941C117.405 95.8982 117.782 95.547 117.782 95.1136C117.782 94.6803 117.405 94.329 116.941 94.329Z" fill="#E6E6E6"/>
<path d="M121.905 94.329H120.373C119.908 94.329 119.532 94.6803 119.532 95.1136C119.532 95.547 119.908 95.8982 120.373 95.8982H121.905C122.369 95.8982 122.745 95.547 122.745 95.1136C122.745 94.6803 122.369 94.329 121.905 94.329Z" fill="#E6E6E6"/>
<path d="M112.175 94.4598H102.655C102.19 94.4598 101.814 94.8111 101.814 95.2444C101.814 95.6778 102.19 96.0291 102.655 96.0291H112.175C112.64 96.0291 113.016 95.6778 113.016 95.2444C113.016 94.8111 112.64 94.4598 112.175 94.4598Z" fill="#E6E6E6"/>
<path d="M104.093 90.7873H102.561C102.097 90.7873 101.72 91.1386 101.72 91.5719C101.72 92.0052 102.097 92.3565 102.561 92.3565H104.093C104.557 92.3565 104.934 92.0052 104.934 91.5719C104.934 91.1386 104.557 90.7873 104.093 90.7873Z" fill="#E6E6E6"/>
<path d="M121.613 90.7873H120.081C119.616 90.7873 119.24 91.1386 119.24 91.5719C119.24 92.0052 119.616 92.3565 120.081 92.3565H121.613C122.077 92.3565 122.453 92.0052 122.453 91.5719C122.453 91.1386 122.077 90.7873 121.613 90.7873Z" fill="#E6E6E6"/>
<path d="M126.576 90.7873H125.045C124.58 90.7873 124.204 91.1386 124.204 91.5719C124.204 92.0052 124.58 92.3565 125.045 92.3565H126.576C127.041 92.3565 127.417 92.0052 127.417 91.5719C127.417 91.1386 127.041 90.7873 126.576 90.7873Z" fill="#E6E6E6"/>
<path d="M116.847 90.9181H107.327C106.862 90.9181 106.486 91.2694 106.486 91.7027C106.486 92.136 106.862 92.4873 107.327 92.4873H116.847C117.312 92.4873 117.688 92.136 117.688 91.7027C117.688 91.2694 117.312 90.9181 116.847 90.9181Z" fill="#E6E6E6"/>
<path d="M108.765 87.2455H107.233C106.769 87.2455 106.392 87.5968 106.392 88.0302C106.392 88.4635 106.769 88.8148 107.233 88.8148H108.765C109.229 88.8148 109.606 88.4635 109.606 88.0302C109.606 87.5968 109.229 87.2455 108.765 87.2455Z" fill="#E6E6E6"/>
<path d="M126.284 87.2455H124.753C124.288 87.2455 123.912 87.5968 123.912 88.0302C123.912 88.4635 124.288 88.8148 124.753 88.8148H126.284C126.749 88.8148 127.125 88.4635 127.125 88.0302C127.125 87.5968 126.749 87.2455 126.284 87.2455Z" fill="#E6E6E6"/>
<path d="M131.248 87.2455H129.716C129.252 87.2455 128.875 87.5968 128.875 88.0302C128.875 88.4635 129.252 88.8148 129.716 88.8148H131.248C131.713 88.8148 132.089 88.4635 132.089 88.0302C132.089 87.5968 131.713 87.2455 131.248 87.2455Z" fill="#E6E6E6"/>
<path d="M121.519 87.3763H111.998C111.534 87.3763 111.157 87.7276 111.157 88.161C111.157 88.5943 111.534 88.9456 111.998 88.9456H121.519C121.983 88.9456 122.36 88.5943 122.36 88.161C122.36 87.7276 121.983 87.3763 121.519 87.3763Z" fill="#E6E6E6"/>
<path d="M102.172 148.74C102.107 148.77 102.043 148.8 101.979 148.827C101.573 149.015 101.164 149.2 100.753 149.383C99.5203 149.93 98.2725 150.451 97.0092 150.944C93.685 152.241 90.2742 153.336 86.7982 154.221C86.2142 150.824 85.6478 142.811 85.1046 136.918C85.0024 135.81 84.9003 134.777 84.7981 133.864C84.701 132.666 84.5166 131.476 84.2462 130.301C84.2197 130.209 84.1815 130.12 84.1323 130.037C84.1878 130.508 84.2462 131.914 84.3017 133.864C84.3309 134.777 84.3571 135.81 84.3863 136.918C84.5236 142.591 84.6667 150.309 84.8097 154.703C84.4039 154.796 83.9951 154.889 83.5863 154.976C83.3293 155.033 83.0695 155.087 82.8096 155.139C82.4942 155.205 82.1789 155.27 81.8635 155.33C81.5336 155.395 81.2036 155.458 80.8737 155.518C75.4818 156.506 69.9996 157.003 64.5046 157C64.1396 157 63.7775 156.997 63.4125 156.995C63.3016 156.995 63.1906 156.992 63.0767 156.989C62.7556 156.984 62.4227 156.978 62.084 156.97C55.5903 156.802 49.1392 155.935 42.8592 154.385L43.1132 136.918L43.157 133.864L43.1746 132.706C43.0299 133.079 42.9434 133.469 42.9176 133.864C42.8154 134.608 42.7103 135.662 42.6052 136.918C42.2051 141.757 41.7934 149.562 41.3671 154.003C36.3186 152.663 32.6278 151.439 28.0143 149.287C27.8362 149.205 27.6552 149.121 27.4771 149.037C27.5092 148.827 27.5442 148.617 27.5763 148.402C28.099 145.013 27.4829 140.602 28.061 136.918C28.5019 134.077 28.9575 131.347 29.4159 129.031C29.9707 126.244 30.5342 124.054 31.0919 122.988C31.7343 121.76 32.3767 120.55 32.9986 119.392C33.2673 118.894 33.531 118.404 33.7899 117.924C33.9301 117.665 34.0702 117.409 34.2075 117.158C34.8323 116.017 35.4222 114.962 35.9623 114.028C36.3419 113.371 36.6923 112.777 37.0135 112.257C37.3902 111.644 37.7231 111.137 37.9975 110.753C40.0248 107.886 43.0413 105.751 46.5471 104.702L46.6347 104.68L46.7193 104.713L46.8157 104.754L52.3811 102.855L54.8659 97.2728L67.6289 96.5399L69.6904 98.003L70.7444 98.7522L71.8686 99.5504L73.9359 101.019L74.5228 101.188L75.3959 101.438L81.3671 103.149L81.4284 103.125L81.516 103.147C84.7062 104.099 87.4987 105.956 89.505 108.459C89.7035 108.699 89.8875 108.947 90.0656 109.198C90.5503 109.868 91.2044 110.928 91.9752 112.257C92.2935 112.805 92.6293 113.399 92.9826 114.028C93.1957 114.407 95.0353 119.763 96.8252 125.233C98.4983 130.355 100.128 135.578 100.341 136.918C100.379 137.166 100.42 137.417 100.458 137.665C100.7 139.215 100.939 140.776 101.17 142.299C101.512 144.558 101.845 146.737 102.163 148.685C102.166 148.704 102.169 148.721 102.172 148.74Z" fill="#2F2E41"/>
<path opacity="0.2" d="M88.646 129.019L86.1649 120.085L83.9741 127.794L88.646 129.019Z" fill="black"/>
<path d="M4.6221 128.915C4.75074 129.265 4.99477 129.567 5.31914 129.779C5.64352 129.991 6.03155 130.102 6.42752 130.095L14.1629 129.909C14.5618 129.902 14.9474 129.775 15.2622 129.546C15.577 129.317 15.804 129 15.9093 128.641L17.0039 117.719C17.3923 117.883 17.8151 117.964 18.2414 117.956C18.9893 117.939 19.6992 117.645 20.2148 117.139C20.7304 116.633 21.0095 115.957 20.9907 115.259C20.972 114.561 20.6568 113.899 20.1147 113.418C19.5725 112.937 18.8477 112.676 18.0998 112.694C17.9294 112.693 17.7595 112.71 17.5928 112.743C17.4116 112.56 17.1914 112.415 16.9463 112.316C16.7011 112.217 16.4366 112.167 16.1697 112.17L4.27081 112.457C4.17211 112.46 4.0739 112.471 3.97731 112.491C3.71636 112.536 3.46887 112.633 3.25149 112.775C3.0341 112.917 2.85186 113.101 2.71704 113.315C2.58222 113.528 2.49794 113.766 2.46988 114.012C2.44183 114.258 2.47064 114.507 2.55438 114.742L4.6221 128.915ZM17.2284 116.978L18.0073 114.375C18.0959 114.074 18.098 113.757 18.0133 113.456C18.0511 113.456 18.0844 113.439 18.1222 113.439C18.6563 113.428 19.173 113.616 19.559 113.961C19.9449 114.305 20.1687 114.779 20.1812 115.277C20.1937 115.775 19.9939 116.258 19.6257 116.619C19.2574 116.98 18.7507 117.19 18.2167 117.203C17.8714 117.213 17.5297 117.135 17.2284 116.978Z" fill="#1E1F26"/>
<path d="M3.97729 112.491C4.2308 113.843 7.08091 114.794 10.5079 114.629C13.6593 114.493 16.2361 113.461 16.7082 112.237C16.5335 112.189 16.3518 112.166 16.1696 112.17L4.2708 112.457C4.1721 112.46 4.07389 112.471 3.97729 112.491Z" fill="#3F3D56"/>
<path d="M11.1359 122.914C11.1516 122.91 11.1665 122.904 11.18 122.896L12.8598 121.87C12.8802 121.857 12.8968 121.84 12.9084 121.821C12.9199 121.801 12.926 121.778 12.926 121.756C12.926 121.733 12.92 121.711 12.9084 121.691C12.8969 121.671 12.8802 121.654 12.8599 121.642L11.1139 120.575C11.0979 120.565 11.0799 120.558 11.061 120.555C11.0422 120.551 11.0228 120.551 11.004 120.555C10.9851 120.559 10.9673 120.566 10.9514 120.576C10.9355 120.586 10.9219 120.599 10.9113 120.614C10.9008 120.629 10.8935 120.645 10.89 120.663C10.8864 120.681 10.8866 120.699 10.8906 120.716C10.8945 120.734 10.9022 120.751 10.913 120.765C10.9239 120.78 10.9378 120.793 10.9539 120.802L12.5134 121.756L11.0202 122.668C10.9912 122.685 10.97 122.712 10.9601 122.743C10.9503 122.774 10.9525 122.807 10.9664 122.836C10.9803 122.866 11.0049 122.89 11.036 122.904C11.067 122.918 11.1024 122.922 11.1359 122.914Z" fill="#6C63FF"/>
<path d="M8.48276 123.028C8.51095 123.021 8.53637 123.007 8.55575 122.987C8.57514 122.966 8.58761 122.941 8.59156 122.914C8.59552 122.887 8.59078 122.86 8.57795 122.836C8.56512 122.811 8.54479 122.791 8.51957 122.778L6.97112 121.949L8.46775 120.912C8.48313 120.901 8.49611 120.888 8.50594 120.873C8.51578 120.857 8.52228 120.84 8.52507 120.823C8.52786 120.805 8.52689 120.787 8.52222 120.77C8.51755 120.752 8.50926 120.736 8.49784 120.722C8.48641 120.707 8.47207 120.695 8.45563 120.686C8.43919 120.677 8.42097 120.671 8.40201 120.668C8.38306 120.666 8.36374 120.666 8.34516 120.671C8.32658 120.675 8.3091 120.683 8.29373 120.694L6.61809 121.855C6.59862 121.868 6.58305 121.886 6.57279 121.907C6.56254 121.927 6.55791 121.95 6.55933 121.972C6.56076 121.995 6.56819 122.017 6.58096 122.036C6.59372 122.055 6.61142 122.071 6.63245 122.082L8.37426 123.014C8.40712 123.032 8.44603 123.037 8.48276 123.028Z" fill="#6C63FF"/>
<path d="M10.9689 123.813C10.983 123.809 10.9965 123.804 11.0089 123.797C11.0253 123.788 11.0396 123.775 11.0509 123.761C11.0622 123.747 11.0704 123.73 11.075 123.713C11.0795 123.695 11.0803 123.677 11.0774 123.66C11.0744 123.642 11.0678 123.625 11.0578 123.61L8.67648 119.957C8.65623 119.926 8.62378 119.904 8.58622 119.896C8.54867 119.887 8.50906 119.893 8.47608 119.912C8.44309 119.931 8.41941 119.961 8.41021 119.996C8.40101 120.031 8.40705 120.068 8.427 120.099L10.8083 123.752C10.8246 123.776 10.8489 123.796 10.8778 123.807C10.9067 123.818 10.9386 123.82 10.9689 123.813Z" fill="#6C63FF"/>
<path d="M229.258 149.036C229.079 149.12 228.898 149.205 228.72 149.287C224.107 151.439 220.416 152.662 215.367 154.003C214.941 149.562 214.529 141.756 214.129 136.918C214.024 135.662 213.919 134.607 213.817 133.864C213.791 133.468 213.705 133.078 213.56 132.706L213.578 133.864L213.621 136.918L213.875 154.384C207.595 155.934 201.144 156.802 194.651 156.969C194.312 156.978 193.979 156.983 193.658 156.988C193.544 156.991 193.433 156.994 193.322 156.994C192.957 156.997 192.595 156.999 192.23 156.999C185.387 157.004 178.569 156.233 171.925 154.703C172.068 150.308 172.211 142.59 172.348 136.918C172.377 135.809 172.404 134.776 172.433 133.864C172.488 131.913 172.547 130.507 172.602 130.036C172.553 130.119 172.515 130.208 172.488 130.3C172.218 131.475 172.034 132.666 171.937 133.864C171.834 134.776 171.732 135.809 171.63 136.918C171.087 142.811 170.52 150.823 169.936 154.221C166.46 153.335 163.05 152.24 159.725 150.943C157.973 150.262 156.253 149.527 154.563 148.739C154.884 146.777 155.22 144.579 155.565 142.298C155.833 140.53 156.111 138.713 156.394 136.918C156.832 134.144 171.712 104.195 175.219 103.146L175.306 103.124L175.367 103.149L181.339 101.438L182.212 101.187L182.799 101.018L184.866 99.5498L185.99 98.7516L187.044 98.0024L189.106 96.5394L201.869 97.2722L204.354 102.855L209.919 104.753L210.015 104.713L210.1 104.68L210.188 104.702C213.693 105.75 216.71 107.885 218.737 110.753C219.012 111.137 219.344 111.643 219.721 112.256C220.042 112.777 220.393 113.371 220.772 114.027C221.312 114.962 221.902 116.016 222.527 117.158C222.664 117.408 222.805 117.664 222.945 117.923C223.205 118.403 223.468 118.892 223.736 119.392C224.358 120.55 225 121.759 225.643 122.988C226.2 124.053 226.764 126.244 227.319 129.031C227.777 131.346 228.233 134.076 228.674 136.918C229.252 140.601 228.636 145.012 229.158 148.401C229.19 148.616 229.225 148.826 229.258 149.036Z" fill="#2F2E41"/>
<path d="M191.826 94.5355C200.024 94.5355 206.669 88.3347 206.669 80.6856C206.669 73.0365 200.024 66.8357 191.826 66.8357C183.628 66.8357 176.982 73.0365 176.982 80.6856C176.982 88.3347 183.628 94.5355 191.826 94.5355Z" fill="#FFB6B6"/>
<path opacity="0.2" d="M168.088 129.019L170.569 120.085L172.76 127.794L168.088 129.019Z" fill="black"/>
<path d="M234.11 123.198C233.223 134.608 234.142 139.631 229.243 149.039C224.785 151.075 220.141 152.736 215.367 154.003C214.871 154.133 214.374 154.26 213.875 154.384C207.595 155.934 201.144 156.802 194.65 156.969C194.312 156.978 193.979 156.983 193.658 156.989C193.544 156.991 193.433 156.994 193.322 156.994C192.957 156.997 192.595 156.999 192.23 156.999C185.387 157.004 178.568 156.233 171.925 154.703C171.259 154.55 170.596 154.389 169.936 154.221C166.46 153.335 163.049 152.24 159.725 150.943C157.973 150.262 156.253 149.527 154.563 148.739C154.18 148.559 153.798 148.379 153.421 148.194C151.485 145.017 150.384 141.154 150.361 136.512C151.701 128.513 231.15 116.299 234.11 123.198Z" fill="#1E1F26"/>
<path opacity="0.2" d="M234.108 125.152C234.153 124.445 234.204 123.716 234.263 122.956C231.302 116.058 151.854 128.271 150.514 136.27C150.518 137.003 150.551 137.715 150.608 138.41C153.853 130.515 229.33 118.907 234.108 125.152Z" fill="black"/>
<path d="M148.385 123.736L154.907 120.694L149.472 107.003L148.04 100.099C147.854 99.202 147.419 98.3663 146.778 97.6754C146.138 96.9844 145.314 96.4625 144.389 96.1617C143.465 95.8609 142.472 95.7918 141.509 95.9612C140.547 96.1307 139.649 96.5328 138.906 97.1274C137.804 98.0085 137.113 99.2545 136.977 100.602C136.841 101.95 137.272 103.295 138.178 104.352L143.495 110.552L148.385 123.736Z" fill="#FFB6B6"/>
<path d="M154.907 118.158L146.212 122.215L152.81 141.506C153.284 142.891 154.134 144.139 155.276 145.128C156.419 146.117 157.816 146.813 159.332 147.15C161.202 147.565 163.164 147.414 164.935 146.719C166.707 146.023 168.194 144.82 169.183 143.282L186.681 115.299C187.921 113.37 188.304 111.066 187.747 108.878C187.191 106.69 185.74 104.792 183.704 103.589C182.609 102.941 181.38 102.517 180.097 102.342C178.815 102.167 177.507 102.247 176.259 102.575C175.012 102.903 173.852 103.472 172.856 104.246C171.86 105.02 171.049 105.981 170.478 107.066L159.798 128.299L154.907 118.158Z" fill="#2F2E41"/>
<path d="M61.1746 93.5797C70.1949 93.5797 77.5072 86.757 77.5072 78.3408C77.5072 69.9245 70.1949 63.1018 61.1746 63.1018C52.1544 63.1018 44.842 69.9245 44.842 78.3408C44.842 86.757 52.1544 93.5797 61.1746 93.5797Z" fill="#A0616A"/>
<path d="M45.0382 67.8394C46.3662 66.1694 48.2749 64.982 49.7348 63.4109C50.5359 62.5488 51.201 61.572 52.1016 60.8003C53.7749 59.3664 56.1148 58.7788 58.3854 58.7058C60.8737 58.6461 63.3422 59.1339 65.591 60.1297C67.8398 61.1254 69.8057 62.6012 71.3297 64.4375C72.5165 63.7882 73.7034 63.139 74.8902 62.4897C75.3591 63.6412 75.8279 64.7927 76.2968 65.9442C76.6816 65.6321 77.1724 65.4572 77.6822 65.4505C78.192 65.4439 78.6879 65.6058 79.0819 65.9077C79.476 66.2095 79.7427 66.6318 79.835 67.0997C79.9272 67.5676 79.8389 68.0508 79.5857 68.4637C79.8681 67.6494 81.1622 67.4766 81.8757 68.0146C82.5891 68.5526 82.7801 69.5097 82.6638 70.3587C82.5177 71.2901 82.0764 72.1594 81.3965 72.8549C80.7167 73.5504 79.8295 74.0403 78.8489 74.2617C77.3002 74.5836 75.4976 74.2454 74.2581 75.1696C73.2643 75.9105 72.9643 77.2596 71.9501 77.976C70.7003 78.8588 68.934 78.4506 67.3805 78.6457C64.6626 78.987 62.5105 81.5807 62.8372 84.1212C62.5913 83.3196 62.3329 82.4947 61.7747 81.8435C61.2166 81.1924 60.2766 80.752 59.4206 80.9914C58.0056 81.3871 57.7742 83.1866 58.1171 84.5272C59.0266 88.0825 62.4734 93.8294 62.4734 93.8294C57.9978 95.4766 52.6658 93.919 49.2125 90.7933C45.7594 87.6676 43.9609 83.2416 43.1774 78.8125C42.5131 75.0566 42.6072 70.8965 45.0382 67.8394Z" fill="#1E1F26"/>
<path d="M210.428 88.3204C213.535 81.6734 211.775 75.5567 207.987 72.3118V72.3091C206.497 69.1951 204.518 66.7922 202.252 66.2282C201.157 65.5716 200.094 64.8006 198.914 64.4083C198.365 64.2164 197.779 64.1302 197.193 64.1551C196.607 64.1799 196.033 64.3151 195.504 64.5527L194.902 64.4029C194.391 63.1851 193.793 63.1605 193.127 63.9615C190.563 62.8472 188.254 62.3487 186.198 62.3487C179.494 62.3487 175.529 67.6449 174.478 74.0473L180.081 75.4394L182.028 72.5434L181.129 75.701L184.221 76.4665C188.928 82.1851 183.296 95.3767 176.156 102.716C177.856 102.278 179.548 101.907 181.234 101.605L187.36 93.2244L183.564 100.853C185.535 100.583 188.049 100.842 190.797 101.362C191.723 100.234 192.21 98.7304 191.731 97.39C192.514 98.8036 193.054 100.323 193.331 101.893C199.13 103.215 207.041 103.893 211.304 104.394C214.748 103.345 214.757 91.4972 210.428 88.3204Z" fill="#1E1F26"/>
<path d="M212.449 65.7101C214.725 70.4651 210.133 72.5103 205.926 72.4526C202.124 72.4004 198.893 69.9085 198.699 66.3659C198.606 64.6646 199.241 62.9985 200.465 61.7341C201.688 60.4696 203.4 59.7104 205.223 59.6234C209.02 59.4423 210.899 62.4711 212.449 65.7101Z" fill="#1E1F26"/>
<path d="M106.864 143.116L103.115 137.281L115.58 128.457L120.763 123.351C121.437 122.688 122.285 122.201 123.223 121.94C124.161 121.678 125.157 121.651 126.11 121.86C127.063 122.07 127.94 122.509 128.654 123.135C129.368 123.76 129.894 124.549 130.179 125.423C130.601 126.718 130.467 128.116 129.805 129.321C129.144 130.526 128.006 131.444 126.633 131.882L118.579 134.447L106.864 143.116Z" fill="#A0616A"/>
<path d="M109.574 142.923L103.737 147.462L102.163 148.685L101.979 148.827C101.573 149.015 101.164 149.2 100.753 149.383C99.5203 149.93 98.2725 150.451 97.0092 150.944C93.685 152.241 90.2742 153.336 86.7982 154.221C86.1383 154.39 85.4755 154.551 84.8097 154.703C84.4039 154.796 83.9951 154.889 83.5863 154.976C83.3293 155.033 83.0694 155.087 82.8096 155.139C82.4942 155.205 82.1789 155.27 81.8635 155.33C81.5336 155.395 81.2036 155.458 80.8737 155.518C79.9858 154.73 79.279 153.781 78.7961 152.73C78.3132 151.679 78.0644 150.548 78.0647 149.404C78.0647 149.331 78.0647 149.255 78.0676 149.178L79.0049 126.748L79.4196 116.807C79.4834 114.559 80.4871 112.423 82.2161 110.856C83.9452 109.289 86.2624 108.415 88.6728 108.421C88.9531 108.421 89.2305 108.435 89.505 108.459C89.7035 108.699 89.8875 108.947 90.0656 109.198C90.5503 109.868 91.2044 110.928 91.9752 112.257C92.2935 112.805 92.6293 113.399 92.9826 114.028C93.1958 114.407 95.0353 119.763 96.8252 125.233L96.0368 130.947L94.6119 141.245L100.458 137.665L104.575 135.142L105.062 135.902L106.332 137.88L108.785 141.694L109.574 142.923Z" fill="#2F2E41"/>
<path d="M106.373 136.512C106.37 136.976 106.359 137.431 106.332 137.88C106.272 139.12 106.117 140.355 105.871 141.574C105.468 143.623 104.749 145.606 103.737 147.462C103.602 147.71 103.459 147.955 103.313 148.195C102.937 148.38 102.554 148.56 102.171 148.74C102.107 148.77 102.043 148.8 101.979 148.827C100.352 149.581 98.6958 150.287 97.0091 150.944C93.6849 152.241 90.2741 153.336 86.7981 154.221C86.1382 154.39 85.4754 154.551 84.8096 154.703C83.5103 155.003 82.1983 155.275 80.8736 155.518C75.4817 156.506 69.9995 157.003 64.5045 157C64.1395 157 63.7774 156.997 63.4124 156.995C63.3015 156.995 63.1905 156.992 63.0766 156.989C62.7555 156.984 62.4226 156.978 62.0839 156.97C55.5902 156.803 49.1391 155.935 42.8591 154.385C42.3598 154.262 41.8624 154.135 41.367 154.003C36.593 152.736 31.9495 151.075 27.4915 149.039C22.5919 139.632 23.5117 134.608 22.624 123.198C24.4461 118.951 55.2717 121.951 79.0048 126.748C85.4462 128.05 91.3619 129.486 96.0367 130.947C100.866 132.453 104.367 133.984 105.74 135.423C106.06 135.721 106.281 136.099 106.373 136.512Z" fill="#1E1F26"/>
<path opacity="0.2" d="M22.6258 125.152C22.5805 124.445 22.5298 123.716 22.4707 122.956C25.4315 116.058 104.88 128.271 106.22 136.27C106.216 137.003 106.183 137.715 106.126 138.41C102.88 130.515 27.4036 118.907 22.6258 125.152Z" fill="black"/>
</g>
<defs>
<filter id="filter0_d_42_642" x="205.125" y="111.111" width="55.8752" height="26.8926" filterUnits="userSpaceOnUse" color-interpolation-filters="sRGB">
<feFlood flood-opacity="0" result="BackgroundImageFix"/>
<feColorMatrix in="SourceAlpha" type="matrix" values="0 0 0 0 0 0 0 0 0 0 0 0 0 0 0 0 0 0 127 0" result="hardAlpha"/>
<feOffset dy="4"/>
<feGaussianBlur stdDeviation="2"/>
<feComposite in2="hardAlpha" operator="out"/>
<feColorMatrix type="matrix" values="0 0 0 0 0 0 0 0 0 0 0 0 0 0 0 0 0 0 0.25 0"/>
<feBlend mode="normal" in2="BackgroundImageFix" result="effect1_dropShadow_42_642"/>
<feBlend mode="normal" in="SourceGraphic" in2="effect1_dropShadow_42_642" result="shape"/>
</filter>
<linearGradient id="paint0_linear_42_642" x1="212.961" y1="89.3289" x2="212.961" y2="130.004" gradientUnits="userSpaceOnUse">
<stop stop-color="#50FA7B"/>
<stop offset="1" stop-color="#16B83F"/>
</linearGradient>
<linearGradient id="paint1_linear_42_642" x1="233.062" y1="111.111" x2="233.062" y2="130.004" gradientUnits="userSpaceOnUse">
<stop stop-color="#50FA7B"/>
<stop offset="1" stop-color="#206832"/>
</linearGradient>
<linearGradient id="paint2_linear_42_642" x1="33.0932" y1="89.3289" x2="33.0932" y2="130.004" gradientUnits="userSpaceOnUse">
<stop stop-color="#50FA7B"/>
<stop offset="1" stop-color="#16B83F"/>
</linearGradient>
<linearGradient id="paint3_linear_42_642" x1="19.7582" y1="88.021" x2="19.7582" y2="130.004" gradientUnits="userSpaceOnUse">
<stop stop-color="#50FA7B"/>
<stop offset="1" stop-color="#16B83F"/>
</linearGradient>
<clipPath id="clip0_42_642">
<rect width="257" height="157" fill="white"/>
</clipPath>
</defs>
</svg>
