<svg width="656" height="71" viewBox="0 0 656 71" fill="none" xmlns="http://www.w3.org/2000/svg">
<path d="M0.753357 41.216L39.9994 17.501V30.707L18.8884 43.913L39.9994 56.561V70.511L0.753357 47.261V41.216Z" fill="#F2F2F2"/>
<path d="M80.7007 68.465C75.8647 68.465 71.4627 67.535 67.4947 65.675C63.5887 63.753 60.2097 61.211 57.3577 58.049C54.5677 54.887 52.3977 51.322 50.8477 47.354C49.2977 43.324 48.5227 39.201 48.5227 34.985C48.5227 30.583 49.3287 26.398 50.9407 22.43C52.6147 18.4 54.8777 14.835 57.7297 11.735C60.6437 8.57299 64.0537 6.09298 67.9597 4.29498C71.9277 2.43498 76.2677 1.50498 80.9797 1.50498C85.7537 1.50498 90.0937 2.46598 93.9997 4.38799C97.9677 6.30998 101.347 8.88298 104.137 12.107C106.927 15.331 109.097 18.927 110.647 22.895C112.197 26.863 112.972 30.955 112.972 35.171C112.972 39.511 112.166 43.696 110.554 47.726C108.942 51.694 106.679 55.259 103.765 58.421C100.913 61.521 97.5027 63.97 93.5347 65.768C89.6287 67.566 85.3507 68.465 80.7007 68.465ZM80.7937 57.119C83.8937 57.119 86.6527 56.499 89.0707 55.259C91.4887 53.957 93.5037 52.252 95.1157 50.144C96.7277 47.974 97.9367 45.587 98.7427 42.983C99.6107 40.317 100.045 37.651 100.045 34.985C100.045 32.133 99.5797 29.374 98.6497 26.708C97.7817 24.042 96.5107 21.686 94.8367 19.64C93.2247 17.594 91.2097 15.951 88.7917 14.711C86.4357 13.471 83.7697 12.851 80.7937 12.851C77.6317 12.851 74.8417 13.502 72.4237 14.804C70.0677 16.044 68.0837 17.749 66.4717 19.919C64.8597 22.027 63.6197 24.383 62.7517 26.987C61.9457 29.591 61.5427 32.257 61.5427 34.985C61.5427 37.837 61.9767 40.596 62.8447 43.262C63.7127 45.928 64.9527 48.284 66.5647 50.33C68.2387 52.376 70.2537 54.019 72.6097 55.259C75.0277 56.499 77.7557 57.119 80.7937 57.119ZM79.4917 43.541H91.5817L113.344 68H101.254L79.4917 43.541Z" fill="#F2F2F2"/>
<path d="M121.052 49.772V19.268H133.514V47.075C133.514 50.795 134.196 53.616 135.56 55.538C136.924 57.398 138.939 58.328 141.605 58.328C143.217 58.328 144.798 58.018 146.348 57.398C147.96 56.716 149.417 55.724 150.719 54.422C152.083 53.12 153.23 51.477 154.16 49.493V19.268H166.622V54.05C166.622 55.352 166.839 56.282 167.273 56.84C167.769 57.398 168.544 57.739 169.598 57.863V68C168.358 68.186 167.304 68.31 166.436 68.372C165.63 68.496 164.886 68.558 164.204 68.558C161.972 68.558 160.143 68.062 158.717 67.07C157.353 66.016 156.547 64.59 156.299 62.792L156.02 58.886C153.85 62.172 151.06 64.683 147.65 66.419C144.24 68.093 140.489 68.93 136.397 68.93C131.375 68.93 127.562 67.318 124.958 64.094C122.354 60.808 121.052 56.034 121.052 49.772Z" fill="#F2F2F2"/>
<path d="M201.605 68.93C197.699 68.93 194.165 68.279 191.003 66.977C187.841 65.613 185.144 63.784 182.912 61.49C180.68 59.134 178.944 56.468 177.704 53.492C176.526 50.454 175.937 47.261 175.937 43.913C175.937 39.263 176.96 35.016 179.006 31.172C181.114 27.328 184.09 24.259 187.934 21.965C191.84 19.609 196.428 18.431 201.698 18.431C207.03 18.431 211.587 19.609 215.369 21.965C219.151 24.259 222.034 27.328 224.018 31.172C226.064 34.954 227.087 39.046 227.087 43.448C227.087 44.192 227.056 44.967 226.994 45.773C226.932 46.517 226.87 47.137 226.808 47.633H189.143C189.391 50.113 190.104 52.283 191.282 54.143C192.522 56.003 194.072 57.429 195.932 58.421C197.854 59.351 199.9 59.816 202.07 59.816C204.55 59.816 206.875 59.227 209.045 58.049C211.277 56.809 212.796 55.197 213.602 53.213L224.297 56.189C223.119 58.669 221.414 60.87 219.182 62.792C217.012 64.714 214.439 66.233 211.463 67.349C208.487 68.403 205.201 68.93 201.605 68.93ZM188.864 39.728H214.346C214.098 37.248 213.385 35.109 212.207 33.311C211.091 31.451 209.603 30.025 207.743 29.033C205.883 27.979 203.806 27.452 201.512 27.452C199.28 27.452 197.234 27.979 195.374 29.033C193.576 30.025 192.088 31.451 190.91 33.311C189.794 35.109 189.112 37.248 188.864 39.728Z" fill="#F2F2F2"/>
<path d="M252.628 68.93C248.474 68.93 244.506 68.248 240.724 66.884C236.942 65.52 233.687 63.505 230.959 60.839L235.423 52.748C238.337 55.104 241.189 56.84 243.979 57.956C246.831 59.072 249.559 59.63 252.163 59.63C254.581 59.63 256.503 59.196 257.929 58.328C259.417 57.46 260.161 56.158 260.161 54.422C260.161 53.244 259.758 52.345 258.952 51.725C258.146 51.043 256.968 50.454 255.418 49.958C253.93 49.462 252.101 48.904 249.931 48.284C246.335 47.106 243.328 45.959 240.91 44.843C238.492 43.727 236.663 42.332 235.423 40.658C234.245 38.922 233.656 36.721 233.656 34.055C233.656 30.831 234.462 28.072 236.074 25.778C237.748 23.422 240.042 21.593 242.956 20.291C245.932 18.989 249.404 18.338 253.372 18.338C256.844 18.338 260.13 18.896 263.23 20.012C266.33 21.066 269.151 22.802 271.693 25.22L266.671 33.125C264.191 31.203 261.835 29.808 259.603 28.94C257.371 28.01 255.108 27.545 252.814 27.545C251.512 27.545 250.272 27.7 249.094 28.01C247.978 28.32 247.048 28.847 246.304 29.591C245.622 30.273 245.281 31.265 245.281 32.567C245.281 33.745 245.591 34.675 246.211 35.357C246.893 35.977 247.885 36.535 249.187 37.031C250.551 37.527 252.194 38.085 254.116 38.705C258.022 39.821 261.308 40.968 263.974 42.146C266.702 43.324 268.748 44.781 270.112 46.517C271.476 48.191 272.158 50.516 272.158 53.492C272.158 58.328 270.391 62.11 266.857 64.838C263.323 67.566 258.58 68.93 252.628 68.93Z" fill="#F2F2F2"/>
<path d="M309.564 65.489C308.509 65.923 307.238 66.419 305.75 66.977C304.262 67.535 302.65 67.969 300.914 68.279C299.24 68.651 297.535 68.837 295.799 68.837C293.505 68.837 291.397 68.434 289.475 67.628C287.553 66.822 286.004 65.551 284.826 63.815C283.71 62.017 283.151 59.692 283.151 56.84V28.847H276.734V19.268H283.151V3.45799H295.613V19.268H305.843V28.847H295.613V52.655C295.676 54.329 296.14 55.538 297.008 56.282C297.876 57.026 298.961 57.398 300.263 57.398C301.565 57.398 302.836 57.181 304.076 56.747C305.316 56.313 306.309 55.941 307.052 55.631L309.564 65.489Z" fill="#F2F2F2"/>
<path d="M388.988 13.223H367.877V68H355.136V13.223H334.025V1.96998H388.988V13.223Z" fill="#F2F2F2"/>
<path d="M409.402 68.93C405.496 68.93 401.962 68.279 398.8 66.977C395.638 65.613 392.941 63.784 390.709 61.49C388.477 59.134 386.741 56.468 385.501 53.492C384.323 50.454 383.734 47.261 383.734 43.913C383.734 39.263 384.757 35.016 386.803 31.172C388.911 27.328 391.887 24.259 395.731 21.965C399.637 19.609 404.225 18.431 409.495 18.431C414.827 18.431 419.384 19.609 423.166 21.965C426.948 24.259 429.831 27.328 431.815 31.172C433.861 34.954 434.884 39.046 434.884 43.448C434.884 44.192 434.853 44.967 434.791 45.773C434.729 46.517 434.667 47.137 434.605 47.633H396.94C397.188 50.113 397.901 52.283 399.079 54.143C400.319 56.003 401.869 57.429 403.729 58.421C405.651 59.351 407.697 59.816 409.867 59.816C412.347 59.816 414.672 59.227 416.842 58.049C419.074 56.809 420.593 55.197 421.399 53.213L432.094 56.189C430.916 58.669 429.211 60.87 426.979 62.792C424.809 64.714 422.236 66.233 419.26 67.349C416.284 68.403 412.998 68.93 409.402 68.93ZM396.661 39.728H422.143C421.895 37.248 421.182 35.109 420.004 33.311C418.888 31.451 417.4 30.025 415.54 29.033C413.68 27.979 411.603 27.452 409.309 27.452C407.077 27.452 405.031 27.979 403.171 29.033C401.373 30.025 399.885 31.451 398.707 33.311C397.591 35.109 396.909 37.248 396.661 39.728Z" fill="#F2F2F2"/>
<path d="M465.168 68.93C461.2 68.93 457.635 68.279 454.473 66.977C451.311 65.613 448.614 63.753 446.382 61.397C444.15 58.979 442.414 56.251 441.174 53.213C439.996 50.175 439.407 46.982 439.407 43.634C439.407 39.046 440.43 34.861 442.476 31.079C444.584 27.235 447.56 24.166 451.404 21.872C455.248 19.578 459.805 18.431 465.075 18.431C470.345 18.431 474.871 19.578 478.653 21.872C482.435 24.166 485.256 27.173 487.116 30.893L474.933 34.613C473.879 32.815 472.484 31.451 470.748 30.521C469.012 29.529 467.09 29.033 464.982 29.033C462.626 29.033 460.456 29.653 458.472 30.893C456.55 32.071 455.031 33.776 453.915 36.008C452.799 38.178 452.241 40.72 452.241 43.634C452.241 46.486 452.799 49.028 453.915 51.26C455.093 53.43 456.643 55.166 458.565 56.468C460.487 57.708 462.626 58.328 464.982 58.328C466.47 58.328 467.865 58.08 469.167 57.584C470.531 57.088 471.74 56.406 472.794 55.538C473.848 54.67 474.623 53.678 475.119 52.562L487.302 56.282C486.186 58.7 484.543 60.87 482.373 62.792C480.265 64.714 477.754 66.233 474.84 67.349C471.988 68.403 468.764 68.93 465.168 68.93Z" fill="#F2F2F2"/>
<path d="M540.261 68H527.799V40.658C527.799 36.876 527.055 34.055 525.567 32.195C524.141 30.335 522.157 29.405 519.615 29.405C518.127 29.405 516.546 29.839 514.872 30.707C513.198 31.575 511.679 32.784 510.315 34.334C509.013 35.822 508.052 37.558 507.432 39.542V68H494.97V0.109985H507.432V28.289C509.23 25.189 511.679 22.771 514.779 21.035C517.879 19.299 521.258 18.431 524.916 18.431C528.078 18.431 530.651 18.989 532.635 20.105C534.619 21.159 536.169 22.616 537.285 24.476C538.401 26.274 539.176 28.32 539.61 30.614C540.044 32.846 540.261 35.171 540.261 37.589V68Z" fill="#F2F2F2"/>
<path d="M607.827 1.96998L561.699 68H547.935L593.97 1.96998H607.827Z" fill="#F2F2F2"/>
<path d="M655.279 47.261L616.033 70.511V56.561L637.144 43.913L616.033 30.707V17.501L655.279 41.216V47.261Z" fill="#F2F2F2"/>
</svg>
