<svg width="476" height="364" viewBox="0 0 476 364" fill="none" xmlns="http://www.w3.org/2000/svg">
<g clip-path="url(#clip0_23_276)">
<g filter="url(#filter0_d_23_276)">
<path d="M458.867 297.85H17.133C7.68604 297.85 0 290.911 0 282.381V234.38H476V282.381C476 290.911 468.314 297.85 458.867 297.85Z" fill="#E6E6E6"/>
</g>
<path d="M295.171 289.82H182.523V362.467H295.171V289.82Z" fill="#E6E6E6"/>
<g filter="url(#filter1_d_23_276)">
<path d="M301.946 353.29H175.747V362.467H301.946V353.29Z" fill="#E6E6E6"/>
</g>
<path d="M475.577 254.644H0V10.6154C0 4.76219 5.27457 0 11.7576 0H463.819C470.302 0 475.577 4.76219 475.577 10.6154V254.644Z" fill="#44475A"/>
<path d="M464.142 11.0881H11.0108V241.262H464.142V11.0881Z" fill="#F8F8F2"/>
<path d="M98.765 148.278C102.233 145.691 106.523 145.209 108.346 147.202C110.17 149.195 108.836 152.907 105.366 155.495C103.996 156.546 102.367 157.285 100.615 157.651L85.7671 168.447L80.3047 162.048L95.5223 152.085C96.2509 150.6 97.3628 149.295 98.765 148.278Z" fill="#FFB6B6"/>
<path d="M12.9445 172.635C12.937 172.157 12.9419 167.993 16.3566 165.361C20.2791 162.337 25.814 163.561 27.7554 163.99C32.2398 164.982 32.6076 166.719 36.819 168.503C44.6981 171.842 34.8259 170.133 39.5142 169.063C41.137 168.692 64.4837 167.23 70.2951 164.001C81.5976 157.72 89.2987 153.911 89.2987 153.911L94.3331 163.002C94.3331 163.002 87.0534 172.141 76.8078 178.911C66.2981 185.856 61.0433 189.329 53.0574 190.67C52.3697 190.786 35.4561 193.393 21.8336 184.204C18.7264 182.108 13.0332 178.268 12.9445 172.635Z" fill="url(#paint0_linear_23_276)"/>
<path d="M28.5614 149.515C38.2472 149.515 46.0992 142.426 46.0992 133.681C46.0992 124.936 38.2472 117.847 28.5614 117.847C18.8756 117.847 11.0237 124.936 11.0237 133.681C11.0237 142.426 18.8756 149.515 28.5614 149.515Z" fill="#FFB6B6"/>
<path d="M165.911 240.061L147.849 223.369L138.526 232.149L151.982 248.154L165.33 249.532L165.911 240.061Z" fill="#FFB6B6"/>
<path d="M62.7788 208.759C63.8352 208.838 67.1923 209.446 70.4011 207.852C72.591 206.764 73.7141 205.147 74.0934 204.632C78.7994 198.251 96.862 188.3 113.073 187.688C116.744 187.549 119.16 187.933 121.357 188.967C124.471 190.432 125.714 192.532 129.666 197.45C131.828 200.14 134.22 202.675 136.408 205.348C149.216 220.997 154.072 222.226 153.575 227.243C153.025 232.81 146.375 238.091 141.956 237.481C140.146 237.231 139.445 236.095 137.027 233.795C129.937 227.05 127.003 228.296 121.955 223.131C116.062 217.099 116.833 212.098 113.759 211.905C110.907 211.726 109.696 215.992 103.608 221.66C100.823 224.253 98.839 225.443 92.796 229.228C69.2631 243.968 68.8875 245.003 64.1383 246.179C62.0604 246.693 47.3128 250.344 42.0592 244.534C33.838 235.444 53.2599 208.045 62.7788 208.759Z" fill="#2F2E41"/>
<path d="M160.389 243.833C161.717 243.294 163.27 242.664 163.77 241.216C164.108 240.237 163.913 239.028 163.215 238.194C162.408 237.23 161.215 237.103 161.263 236.933C161.336 236.674 164.159 236.775 167.257 237.764C167.842 237.95 170.491 238.824 173.86 241.199C176.56 243.102 176.197 243.484 177.889 244.581C183.086 247.949 187.96 245.294 190.771 248.453C191.857 249.672 192.319 251.402 191.863 252.802C190.946 255.612 186.486 256.579 184.048 257.078C178.178 258.281 173.735 257.299 169.095 256.593C153.316 254.193 144.451 256.379 143.264 253.079C143.04 252.454 143.405 252.507 144.621 247.923C145.822 243.399 145.783 242.157 146.805 241.795C148.345 241.249 149.378 243.73 153.256 244.579C156.693 245.331 159.528 244.182 160.389 243.833Z" fill="url(#paint1_linear_23_276)"/>
<path d="M133.8 294.667L129.237 271.698L116.061 274.237L117.241 294.302L127.429 302.21L133.8 294.667Z" fill="#FFB6B6"/>
<path d="M67.9318 216.48C68.7566 217.081 71.1568 219.285 74.8033 219.593C77.2918 219.803 79.2271 219.034 79.8609 218.801C87.7238 215.907 108.859 216.83 122.653 224.542C125.777 226.289 127.538 227.832 128.712 229.801C130.377 232.592 130.1 234.96 130.312 241.033C130.427 244.355 130.83 247.665 130.978 250.986C131.843 270.429 135.096 273.907 131.565 277.807C127.648 282.134 118.861 283.133 115.583 280.388C114.241 279.263 114.368 277.968 113.797 274.838C112.125 265.663 108.923 265.207 107.959 258.373C106.834 250.395 110.583 246.648 108.158 244.929C105.91 243.335 102.254 246.251 93.6925 247.854C89.7747 248.588 87.3935 248.566 80.0391 248.635C51.3992 248.9 50.4442 249.567 45.7833 248.132C43.7441 247.504 29.2706 243.048 28.5367 235.577C27.3882 223.887 60.4995 211.063 67.9318 216.48Z" fill="#2F2E41"/>
<path d="M126.885 294.988C128.319 295.216 129.996 295.483 131.31 294.538C132.199 293.899 132.79 292.8 132.731 291.755C132.662 290.549 131.754 289.839 131.9 289.722C132.122 289.545 134.394 291.06 136.343 293.449C136.711 293.9 138.359 295.966 139.67 299.639C140.72 302.582 140.182 302.714 140.901 304.48C143.106 309.901 148.79 310.176 149.152 314.215C149.292 315.774 148.598 317.44 147.35 318.367C144.843 320.227 140.551 318.766 138.224 317.944C132.619 315.962 129.553 312.897 126.153 309.961C114.59 299.975 105.894 297.29 106.965 293.957C107.168 293.327 107.436 293.556 111.294 290.379C115.101 287.245 115.842 286.197 116.913 286.415C118.526 286.745 117.838 289.321 120.519 291.99C122.895 294.354 125.956 294.841 126.885 294.988Z" fill="url(#paint2_linear_23_276)"/>
<path d="M30.9524 136.708C31.6352 134.503 30.7776 133.699 31.6517 132.709C31.6517 132.709 32.0034 132.311 35.148 131.236C34.2202 126.376 34.9149 125.554 34.9149 125.554C35.7155 124.607 37.3193 124.378 38.4112 124.502C40.7204 124.764 41.1291 126.649 42.6067 126.607C44.6478 126.548 47.0959 122.859 46.3361 119.662C45.7162 117.054 43.0436 115.117 42.3736 115.453C41.7093 115.786 39.3181 114.317 38.4112 114.611C37.7918 114.812 34.8766 114.545 34.2156 114.822C33.4938 115.124 31.4265 117.007 31.2289 116.77C29.8554 115.121 29.8846 114.546 29.0878 114.191C27.6758 113.561 26.1407 114.725 23.4937 115.874C18.0476 118.239 16.4528 116.828 13.9372 118.82C12.6665 119.826 11.985 121.749 10.674 125.554C8.84062 130.876 7.92392 133.536 8.80937 136.077C9.71237 138.667 11.0422 138.103 13.0049 141.759C15.1897 145.827 14.4367 148.192 16.5012 149.124C18.0967 149.844 20.6609 149.386 21.6291 148.072C23.2866 145.822 19.0023 142.779 20.4636 139.233C21.3606 137.057 24.1277 135.407 25.8246 135.866C27.7433 136.386 27.8846 139.492 29.0878 139.444C30.1181 139.402 30.8335 137.092 30.9524 136.708Z" fill="#2F2E41"/>
<path d="M17.6666 151.86C21.2554 148.227 35.8736 151.987 37.2457 157.752C37.8101 160.123 35.7267 161.125 36.3134 163.855C37.1715 167.848 42.0303 167.576 45.6368 171.641C50.7569 177.413 45.4821 183.054 51.2308 192.686C52.4592 194.744 53.4946 196.478 55.6594 198.157C60.6271 202.01 65.2504 200.688 67.7799 204.26C69.6715 206.931 68.8943 210.223 68.7122 210.994C67.9657 214.156 65.9424 214.927 64.5167 217.518C62.1446 221.829 64.8303 224.994 64.9828 230.144C65.1736 236.589 61.3805 245.522 53.7948 248.453C45.2725 251.746 34.9939 246.292 30.0201 240.877C27.0522 237.646 26.1906 234.665 24.8922 230.986C19.0893 214.544 15.8109 216.031 11.3733 202.997C6.30021 188.097 5.30292 170.641 11.3733 165.118C12.1779 164.386 14.3921 162.693 15.8019 159.646C17.6989 155.546 16.0601 153.486 17.6666 151.86Z" fill="url(#paint3_linear_23_276)"/>
<path d="M70.6955 236.433C73.4779 239.625 73.9092 243.508 71.6591 245.106C69.4089 246.705 65.3299 245.413 62.5469 242.22C61.4159 240.958 60.6359 239.47 60.2724 237.88L48.6721 224.221L54.6662 220.093L66.5572 233.415C68.1837 234.108 69.6027 235.143 70.6955 236.433Z" fill="#FFB6B6"/>
<path d="M28.2113 165.706C28.7274 165.602 33.2438 164.756 36.7945 167.237C40.8732 170.087 40.6757 175.229 40.6064 177.033C40.4463 181.199 38.6381 181.878 37.5624 185.965C35.5498 193.61 39.3826 200.715 41.5001 204.64C42.233 205.999 44.5878 210.156 49.2752 214.634C58.3915 223.342 66.5256 227.925 66.5256 227.925L57.7873 234.938C57.7873 234.938 43.8681 231.107 34.4365 223.433C24.7619 215.561 9.88392 187.709 6.79969 180.924C6.53408 180.34 10.2964 189.839 17.4802 175.923C19.1187 172.749 22.121 166.934 28.2113 165.706Z" fill="url(#paint4_linear_23_276)"/>
<path d="M251.861 159.173L241.427 154.71C245.707 160.102 249.394 168.523 251.368 175.224C254.711 168.982 260.099 161.345 265.432 156.783L254.405 159.344C261.2 129.278 286.757 107.693 316.023 107.693L316.437 106.607C285.868 106.607 258.798 127.893 251.861 159.173Z" fill="#282A36"/>
<path d="M299.882 204.984H233.959C231.163 204.984 228.888 202.93 228.888 200.405C228.888 197.881 231.163 195.827 233.959 195.827H299.882C302.678 195.827 304.953 197.881 304.953 200.405C304.953 202.93 302.678 204.984 299.882 204.984Z" fill="url(#paint5_linear_23_276)"/>
<path d="M387.6 204.984H321.677C318.881 204.984 316.606 202.93 316.606 200.405C316.606 197.881 318.881 195.827 321.677 195.827H387.6C390.396 195.827 392.671 197.881 392.671 200.405C392.671 202.93 390.396 204.984 387.6 204.984Z" fill="#C8C8C8"/>
<path d="M348.574 80.4335H284.495C282.879 80.4335 281.565 79.2467 281.565 77.7881C281.565 76.3295 282.879 75.1433 284.495 75.1433H348.574C350.19 75.1433 351.504 76.3295 351.504 77.7881C351.504 79.2467 350.19 80.4335 348.574 80.4335Z" fill="#282A36"/>
<path d="M382.96 108.655H250.109C248.493 108.655 247.179 107.468 247.179 106.01C247.179 104.551 248.493 103.365 250.109 103.365H382.96C384.576 103.365 385.89 104.551 385.89 106.01C385.89 107.468 384.576 108.655 382.96 108.655Z" fill="#282A36"/>
<path d="M142.893 363.538C142.893 363.282 143.084 363.076 143.322 363.076H331.75C331.988 363.076 332.179 363.282 332.179 363.538C332.179 363.794 331.988 364 331.75 364H143.322C143.084 364 142.893 363.794 142.893 363.538Z" fill="#3A3955"/>
<path d="M131.074 160.047C130.961 160.047 130.848 160.044 130.735 160.037C124.061 159.65 101.226 156.733 87.5933 135.452C86.4698 133.7 86.6912 131.472 88.1436 129.909L113.391 102.75C114.423 101.64 116.018 101 117.633 101.018C118.75 101.042 121.393 101.296 121.906 103.136C124.939 114.005 137.746 126.785 153.148 128.479C154.709 128.65 155.962 129.907 156.5 131.842C156.92 133.348 156.532 134.901 155.436 136.102L135.211 158.275C134.183 159.402 132.676 160.047 131.074 160.047ZM117.536 102.11C116.303 102.11 115.103 102.609 114.318 103.453L89.0714 130.611C87.9447 131.824 87.7721 133.548 88.6411 134.904C101.973 155.716 124.291 158.568 130.813 158.946C132.145 159.027 133.424 158.515 134.276 157.581L154.501 135.407C155.351 134.477 155.651 133.275 155.326 132.109C155.009 130.967 154.231 129.699 153.001 129.563C137.09 127.814 123.863 114.622 120.732 103.403C120.479 102.494 118.952 102.139 117.608 102.111C117.584 102.11 117.56 102.11 117.536 102.11Z" fill="#282A36"/>
<path d="M102.893 136.346L121.095 119.589C122.339 118.444 120.39 116.681 119.144 117.828L100.942 134.584C99.6979 135.73 101.647 137.492 102.893 136.346Z" fill="#E6E6E6"/>
<path d="M113.879 141.066C118.902 137.001 123.268 132.294 126.842 127.129C127.786 125.766 125.4 124.514 124.46 125.872C121.004 130.865 116.784 135.375 111.928 139.305C110.603 140.377 112.56 142.134 113.879 141.066Z" fill="#E6E6E6"/>
<path d="M123.78 146.719C128.354 142.145 132.247 137.039 135.312 131.532C136.108 130.104 133.728 128.841 132.93 130.275C129.969 135.596 126.249 140.537 121.829 144.958C120.642 146.145 122.588 147.912 123.78 146.719Z" fill="#E6E6E6"/>
<path d="M115.982 116.553C126.117 116.553 134.333 109.291 134.333 100.333C134.333 91.3756 126.117 84.114 115.982 84.114C105.847 84.114 97.6308 91.3756 97.6308 100.333C97.6308 109.291 105.847 116.553 115.982 116.553Z" fill="url(#paint6_linear_23_276)"/>
<path d="M125.531 108.027C122.708 101.762 119.886 95.4972 117.064 89.2322C116.674 88.3669 115.453 88.3362 115.072 89.2322C112.284 95.8005 110.461 102.654 109.585 109.642C109.436 110.833 111.502 110.823 111.65 109.642C111.993 106.908 112.502 104.194 113.155 101.508C115.481 101.619 117.826 101.383 120.07 100.822C121.227 103.389 122.383 105.956 123.539 108.523C124.033 109.62 126.032 109.14 125.531 108.027ZM113.624 99.6653C114.319 97.0947 115.153 94.5547 116.121 92.0554L119.286 99.081C117.432 99.5203 115.536 99.7158 113.624 99.6653Z" fill="white"/>
</g>
<defs>
<filter id="filter0_d_23_276" x="-4" y="234.38" width="484" height="71.4699" filterUnits="userSpaceOnUse" color-interpolation-filters="sRGB">
<feFlood flood-opacity="0" result="BackgroundImageFix"/>
<feColorMatrix in="SourceAlpha" type="matrix" values="0 0 0 0 0 0 0 0 0 0 0 0 0 0 0 0 0 0 127 0" result="hardAlpha"/>
<feOffset dy="4"/>
<feGaussianBlur stdDeviation="2"/>
<feComposite in2="hardAlpha" operator="out"/>
<feColorMatrix type="matrix" values="0 0 0 0 0 0 0 0 0 0 0 0 0 0 0 0 0 0 0.25 0"/>
<feBlend mode="normal" in2="BackgroundImageFix" result="effect1_dropShadow_23_276"/>
<feBlend mode="normal" in="SourceGraphic" in2="effect1_dropShadow_23_276" result="shape"/>
</filter>
<filter id="filter1_d_23_276" x="171.747" y="353.29" width="134.199" height="17.1764" filterUnits="userSpaceOnUse" color-interpolation-filters="sRGB">
<feFlood flood-opacity="0" result="BackgroundImageFix"/>
<feColorMatrix in="SourceAlpha" type="matrix" values="0 0 0 0 0 0 0 0 0 0 0 0 0 0 0 0 0 0 127 0" result="hardAlpha"/>
<feOffset dy="4"/>
<feGaussianBlur stdDeviation="2"/>
<feComposite in2="hardAlpha" operator="out"/>
<feColorMatrix type="matrix" values="0 0 0 0 0 0 0 0 0 0 0 0 0 0 0 0 0 0 0.25 0"/>
<feBlend mode="normal" in2="BackgroundImageFix" result="effect1_dropShadow_23_276"/>
<feBlend mode="normal" in="SourceGraphic" in2="effect1_dropShadow_23_276" result="shape"/>
</filter>
<linearGradient id="paint0_linear_23_276" x1="53.6385" y1="153.911" x2="53.6385" y2="191.098" gradientUnits="userSpaceOnUse">
<stop stop-color="#FF79C6"/>
<stop offset="1" stop-color="#804366"/>
</linearGradient>
<linearGradient id="paint1_linear_23_276" x1="167.62" y1="236.811" x2="167.62" y2="257.644" gradientUnits="userSpaceOnUse">
<stop stop-color="#2F2E41"/>
<stop offset="1" stop-color="#282A36"/>
</linearGradient>
<linearGradient id="paint2_linear_23_276" x1="128.023" y1="286.388" x2="128.023" y2="319.269" gradientUnits="userSpaceOnUse">
<stop stop-color="#2F2E41"/>
<stop offset="1"/>
</linearGradient>
<linearGradient id="paint3_linear_23_276" x1="38.1055" y1="150.428" x2="38.1055" y2="249.452" gradientUnits="userSpaceOnUse">
<stop stop-color="#FF79C6"/>
<stop offset="1" stop-color="#804366"/>
</linearGradient>
<linearGradient id="paint4_linear_23_276" x1="36.6561" y1="165.484" x2="36.6561" y2="234.938" gradientUnits="userSpaceOnUse">
<stop stop-color="#FF79C6"/>
<stop offset="1" stop-color="#804366"/>
</linearGradient>
<linearGradient id="paint5_linear_23_276" x1="266.92" y1="195.827" x2="266.92" y2="204.984" gradientUnits="userSpaceOnUse">
<stop stop-color="#FD73C2"/>
<stop offset="1" stop-color="#804366"/>
</linearGradient>
<linearGradient id="paint6_linear_23_276" x1="115.982" y1="84.114" x2="115.982" y2="116.553" gradientUnits="userSpaceOnUse">
<stop stop-color="#FD73C3"/>
<stop offset="1" stop-color="#804366"/>
</linearGradient>
<clipPath id="clip0_23_276">
<rect width="476" height="364" fill="white"/>
</clipPath>
</defs>
</svg>
