<svg width="129" height="103" viewBox="0 0 129 103" fill="none" xmlns="http://www.w3.org/2000/svg">
<path d="M60.0513 0.000272492C58.9366 0.00218382 57.8219 0.0249367 56.7082 0.0685154C54.3151 0.447721 53.21 1.38158 52.61 2.45047C51.9489 3.62898 51.9747 5.21478 52.7118 6.62488C53.4495 8.03571 54.8025 9.18906 56.6914 9.61981C58.5806 10.0506 61.1811 9.82792 64.5992 7.88059L67.3314 11.692C63.0366 14.1386 58.8809 14.784 55.4356 13.9982C51.9907 13.2125 49.4344 11.0645 48.1135 8.53809C46.8689 6.15783 46.6403 3.36521 47.8338 0.885248C36.1813 2.56469 25.6303 6.54744 17.526 12.153C14.8624 14.7394 14.6018 17.7455 15.7693 19.7986C17.0807 22.1038 20.1705 23.7867 26.3501 22.0443L27.8858 26.355C20.126 28.5426 13.7299 26.2127 11.2475 21.8478C10.642 20.7838 10.2722 19.6321 10.127 18.4446C8.8199 19.8269 7.63991 21.2658 6.5973 22.7628L6.63151 22.7773C4.2927 27.5243 4.23949 30.8123 5.17186 32.9488C6.10478 35.0856 8.0594 36.4432 11.0691 37.1915C17.088 38.687 26.8345 36.8825 33.6978 32.3138C36.6356 30.3585 39.4205 25.6161 39.6629 21.9383C39.7837 20.0991 39.3466 18.6462 38.4832 17.7184C37.6198 16.7906 36.2373 16.0963 33.3752 16.1227L33.3245 11.6008C37.2579 11.5645 40.4517 12.7512 42.3862 14.83C44.3205 16.9087 44.9004 19.5856 44.728 22.2031C44.3832 27.4381 41.3083 32.8924 36.7352 35.9363C28.6235 41.3361 17.9096 43.5847 9.71155 41.5476C5.91363 40.6038 2.55176 38.5503 0.819514 35.3695C-1.77235 46.3672 1.99326 56.5828 9.15984 63.6524C10.0966 64.5768 11.0936 65.4504 12.1383 66.2611C11.3906 64.3525 11.0479 62.365 11.1283 60.4307C11.2722 56.9641 12.7796 53.5711 15.8038 51.2277C18.2837 49.3048 21.7097 48.1955 25.8071 48.2027C26.0802 48.2027 26.3594 48.2071 26.6385 48.2172C27.2765 48.2414 27.9317 48.2908 28.5988 48.3687L27.9363 52.8534C23.704 52.3578 20.9571 53.2217 19.1295 54.6381C17.3022 56.0547 16.2941 58.1746 16.1936 60.5972C15.9927 65.4429 19.4708 71.1012 26.97 72.7424L26.9613 72.7879C34.3443 74.0439 42.583 72.878 50.8544 68.3788C50.8593 68.3759 50.8661 68.3747 50.8712 68.3715C52.5926 67.2947 53.5198 66.2401 53.9768 65.3314C54.5158 64.2588 54.5043 63.3247 54.1207 62.3214C53.3539 60.3153 50.6073 58.253 48.0882 57.6783C44.015 56.749 41.4275 58.0258 40.2144 59.5465C39.0012 61.0662 38.9274 62.5593 40.7997 63.8564L37.6855 67.4258C33.8335 64.7559 33.5878 60.0481 36.0822 56.922C37.9535 54.5776 41.2369 52.9712 45.1953 52.8686C45.3621 52.8633 45.529 52.8609 45.6959 52.8614C46.8651 52.8686 48.0825 53.0119 49.3442 53.2994C53.5541 54.2601 57.4462 56.9963 58.9232 60.8617C59.3173 61.8979 59.4901 62.9907 59.4326 64.0836C63.9695 62.0175 68.7541 60.1827 73.6278 58.8048C81.8155 55.4701 85.3653 49.624 85.2268 44.7013C85.087 39.7421 81.6464 35.5684 73.7212 34.87L74.2219 30.3704C84.1771 31.2478 90.095 37.5934 90.2922 44.5876C90.4067 48.6628 88.7299 52.9032 85.3539 56.5131C89.7176 56.0775 94.0542 56.1513 98.2589 56.9068C97.4031 55.3406 96.9882 53.6452 97.046 51.9609C97.2298 46.6283 102.319 41.6536 110.316 41.5779C110.863 41.5733 111.409 41.5909 111.953 41.6306L111.546 46.1378C104.778 45.6543 102.233 48.8205 102.12 52.1044C102.008 55.352 104.44 58.9872 111.411 59.4698C119.095 59.5303 124.603 55.8161 127.303 50.2967C130.916 42.9072 129.202 31.8284 117.842 21.6958C117.627 21.5039 117.414 21.3103 117.197 21.1211C117.078 22.0235 116.818 22.9067 116.426 23.7453C114.457 27.9536 109.846 30.7941 105.056 31.5876C98.4487 32.6819 93.0306 30.2937 90.53 26.6495C88.0294 23.0058 88.6859 17.853 93.1854 15.1402L96.0281 18.8911C93.6081 20.3499 93.5085 22.325 94.8571 24.29C96.2057 26.2555 99.2475 27.9577 104.131 27.1489C107.201 26.6403 110.619 24.4071 111.741 22.0066C112.303 20.8063 112.412 19.62 111.852 18.2629C111.397 17.1606 110.444 15.9001 108.67 14.5725L108.619 14.535C101.203 9.55302 93.3228 5.97004 85.337 3.6072C85.3419 3.61495 85.3493 3.62172 85.3542 3.62971C87.1689 6.58689 87.3036 9.94142 86.1858 12.9088C83.9504 18.8437 76.9354 23.5197 68.2573 23.2613C66.3708 23.2056 64.5756 24.0163 63.048 25.5982C61.5202 27.1802 60.4049 29.4975 60.1461 31.9658C59.6289 36.9025 62.0258 42.344 71.3715 45.0336L69.8087 49.3367C58.6541 46.1269 54.3786 38.3148 55.0873 31.5501C55.4422 28.1682 56.908 25.0254 59.2026 22.6495C61.4974 20.2736 64.7618 18.6317 68.4259 18.7399C74.953 18.9339 79.9171 15.3316 81.3735 11.4648C82.1017 9.53172 82.0075 7.6081 80.8984 5.80089C79.821 4.04594 77.6864 2.3106 73.8645 1.04424C69.3031 0.338143 64.6811 -0.011176 60.0513 0.000272492ZM87.533 60.9679C76.1526 61.7932 63.8121 66.6306 53.5179 72.2357C38.3187 80.5115 22.3239 78.705 10.9752 71.2C15.4399 85.4399 31.2604 88.3303 47.7651 84.7287C49.4167 84.1757 51.0396 83.1465 52.4235 81.8175C54.3395 79.9766 55.7278 77.5898 56.1649 75.6164L61.1455 76.4936C60.4817 79.4902 58.6808 82.4627 56.1481 84.8957C53.718 87.2297 50.5522 89.0943 46.8911 89.5841C45.0541 93.2309 43.5423 96.7665 42.9287 99.2411C41.9648 103.128 46.7858 104.619 48.9443 100.7C54.109 91.3247 61.3986 82.9791 70.504 75.7829C77.5807 71.6319 83.6469 66.5137 87.5333 60.9679H87.533Z" fill="url(#paint0_linear_34_163)"/>
<defs>
<linearGradient id="paint0_linear_34_163" x1="64.5" y1="0" x2="64.5" y2="103" gradientUnits="userSpaceOnUse">
<stop stop-color="#FF79C6"/>
<stop offset="1" stop-color="#804366"/>
</linearGradient>
</defs>
</svg>
